<svg width="26" height="26" viewBox="0 0 26 26" fill="none" xmlns="http://www.w3.org/2000/svg">
<path d="M3.25 11.6667H22.75M18.4167 3V7.33333M7.58333 3V7.33333M7.98958 15.4746H9.10325M16.8968 15.4746H18.0104M12.4432 15.4746H13.5568M7.98958 18.8156H9.10325M16.8968 18.8156H18.0104M12.4432 18.8156H13.5568M18.4167 5.16667H7.58333C6.43406 5.16667 5.33186 5.62321 4.5192 6.43587C3.70655 7.24853 3.25 8.35073 3.25 9.5V18.9792C3.25 20.1284 3.70655 21.2306 4.5192 22.0433C5.33186 22.856 6.43406 23.3125 7.58333 23.3125H18.4167C19.5659 23.3125 20.6681 22.856 21.4808 22.0433C22.2935 21.2306 22.75 20.1284 22.75 18.9792V9.5C22.75 8.35073 22.2935 7.24853 21.4808 6.43587C20.6681 5.62321 19.5659 5.16667 18.4167 5.16667Z" stroke="#A7A7A7" stroke-width="1.5" stroke-linecap="round" stroke-linejoin="round"/>
</svg>
