<svg width="22" height="22" viewBox="0 0 22 22" fill="none" xmlns="http://www.w3.org/2000/svg">
<path d="M18.4167 2.16667H16.25V1.08333C16.25 0.796016 16.1359 0.520465 15.9327 0.317301C15.7295 0.114137 15.454 0 15.1667 0C14.8793 0 14.6038 0.114137 14.4006 0.317301C14.1975 0.520465 14.0833 0.796016 14.0833 1.08333V2.16667H7.58333V1.08333C7.58333 0.796016 7.4692 0.520465 7.26603 0.317301C7.06287 0.114137 6.78732 0 6.5 0C6.21268 0 5.93713 0.114137 5.73397 0.317301C5.5308 0.520465 5.41667 0.796016 5.41667 1.08333V2.16667H3.25C2.38805 2.16667 1.5614 2.50908 0.951903 3.11857C0.34241 3.72806 0 4.55471 0 5.41667V18.4167C0 19.2786 0.34241 20.1053 0.951903 20.7148C1.5614 21.3243 2.38805 21.6667 3.25 21.6667H18.4167C19.2786 21.6667 20.1053 21.3243 20.7148 20.7148C21.3243 20.1053 21.6667 19.2786 21.6667 18.4167V5.41667C21.6667 4.55471 21.3243 3.72806 20.7148 3.11857C20.1053 2.50908 19.2786 2.16667 18.4167 2.16667ZM19.5 18.4167C19.5 18.704 19.3859 18.9795 19.1827 19.1827C18.9795 19.3859 18.704 19.5 18.4167 19.5H3.25C2.96268 19.5 2.68713 19.3859 2.48397 19.1827C2.2808 18.9795 2.16667 18.704 2.16667 18.4167V10.8333H19.5V18.4167ZM19.5 8.66667H2.16667V5.41667C2.16667 5.12935 2.2808 4.8538 2.48397 4.65063C2.68713 4.44747 2.96268 4.33333 3.25 4.33333H5.41667V5.41667C5.41667 5.70398 5.5308 5.97953 5.73397 6.1827C5.93713 6.38586 6.21268 6.5 6.5 6.5C6.78732 6.5 7.06287 6.38586 7.26603 6.1827C7.4692 5.97953 7.58333 5.70398 7.58333 5.41667V4.33333H14.0833V5.41667C14.0833 5.70398 14.1975 5.97953 14.4006 6.1827C14.6038 6.38586 14.8793 6.5 15.1667 6.5C15.454 6.5 15.7295 6.38586 15.9327 6.1827C16.1359 5.97953 16.25 5.70398 16.25 5.41667V4.33333H18.4167C18.704 4.33333 18.9795 4.44747 19.1827 4.65063C19.3859 4.8538 19.5 5.12935 19.5 5.41667V8.66667Z" fill="currentColor"/>
</svg>
