<svg width="34" height="34" viewBox="0 0 34 34" fill="none" xmlns="http://www.w3.org/2000/svg">
<path d="M18.227 4.24977L31.7222 27.6248C31.8465 27.8401 31.912 28.0844 31.912 28.3331C31.912 28.5818 31.8465 28.8261 31.7222 29.0414C31.5978 29.2568 31.419 29.4356 31.2037 29.56C30.9883 29.6843 30.744 29.7498 30.4953 29.7498H3.50501C3.25634 29.7498 3.01204 29.6843 2.79669 29.56C2.58133 29.4356 2.4025 29.2568 2.27817 29.0414C2.15383 28.8261 2.08838 28.5818 2.08838 28.3331C2.08838 28.0844 2.15384 27.8401 2.27818 27.6248L15.7733 4.24977C15.8977 4.03443 16.0765 3.85561 16.2919 3.73128C16.5072 3.60696 16.7515 3.5415 17.0002 3.5415C17.2488 3.5415 17.4931 3.60696 17.7085 3.73128C17.9238 3.85561 18.1027 4.03443 18.227 4.24977ZM15.5835 22.6664V25.4998H18.4168V22.6664H15.5835ZM15.5835 12.7498V19.8331H18.4168V12.7498H15.5835Z" fill="#F9E63F"/>
</svg>
