<svg viewBox="0 0 30 30" fill="none" xmlns="http://www.w3.org/2000/svg">
<path fill-rule="evenodd" clip-rule="evenodd" d="M15.0172 16.9629L22.9392 24.885C23.2034 25.1401 23.5571 25.2812 23.9243 25.278C24.2915 25.2748 24.6427 25.1276 24.9023 24.8679C25.162 24.6083 25.3093 24.257 25.3124 23.8899C25.3156 23.5227 25.1745 23.1689 24.9194 22.9048L16.9974 14.9828L24.9194 7.06076C25.1745 6.79665 25.3156 6.4429 25.3124 6.07573C25.3093 5.70855 25.162 5.35731 24.9023 5.09767C24.6427 4.83802 24.2915 4.69074 23.9243 4.68755C23.5571 4.68436 23.2034 4.82551 22.9392 5.08061L15.0172 13.0026L7.09518 5.08061C6.82987 4.83182 6.47819 4.69601 6.11453 4.70192C5.75087 4.70782 5.40377 4.85498 5.14669 5.11225C4.8896 5.36952 4.74269 5.71672 4.73704 6.08038C4.73139 6.44404 4.86745 6.79563 5.11642 7.06076L13.0371 14.9828L5.11502 22.9048C4.98127 23.034 4.87459 23.1885 4.80119 23.3594C4.7278 23.5302 4.68917 23.714 4.68755 23.8999C4.68594 24.0859 4.72137 24.2703 4.79178 24.4424C4.8622 24.6145 4.96618 24.7709 5.09767 24.9023C5.22915 25.0338 5.38551 25.1378 5.55761 25.2082C5.72972 25.2786 5.91412 25.3141 6.10006 25.3125C6.28601 25.3108 6.46977 25.2722 6.64062 25.1988C6.81147 25.1254 6.966 25.0187 7.09518 24.885L15.0172 16.9629Z" fill="currentColor"/>
</svg>
