<svg width="40" height="44" viewBox="0 0 40 44" fill="none" xmlns="http://www.w3.org/2000/svg">
<path fill-rule="evenodd" clip-rule="evenodd" d="M4.24286 4.05V39.15H20.5071C21.0698 39.15 21.6094 39.3633 22.0072 39.7431C22.4051 40.1229 22.6286 40.6379 22.6286 41.175C22.6286 41.7121 22.4051 42.2271 22.0072 42.6069C21.6094 42.9867 21.0698 43.2 20.5071 43.2H2.82857C2.07839 43.2 1.35893 42.9155 0.828469 42.4092C0.298009 41.9028 0 41.2161 0 40.5V2.7C0 1.98392 0.298009 1.29716 0.828469 0.790813C1.35893 0.284465 2.07839 1.32271e-06 2.82857 1.32271e-06H21.6216C22.0016 -0.000357709 22.3778 0.0723778 22.7277 0.213865C23.0776 0.355353 23.3941 0.562691 23.6582 0.823501L33.148 10.2087C33.6579 10.7122 33.9429 11.385 33.9429 12.0852V16.875C33.9429 17.4121 33.7194 17.9271 33.3215 18.3069C32.9237 18.6867 32.3841 18.9 31.8214 18.9C31.2588 18.9 30.7192 18.6867 30.3214 18.3069C29.9235 17.9271 29.7 17.4121 29.7 16.875V16.2H21.9214C20.6086 16.2 19.3496 15.7022 18.4213 14.8161C17.4929 13.93 16.9714 12.7281 16.9714 11.475V4.05H4.24286ZM21.2143 4.239L29.2135 12.15H21.9214C21.7339 12.15 21.554 12.0789 21.4214 11.9523C21.2888 11.8257 21.2143 11.654 21.2143 11.475V4.239ZM31.1143 40.5C30.5517 40.5 30.0121 40.2867 29.6142 39.9069C29.2164 39.5271 28.9929 39.0121 28.9929 38.475V34.425H24.75C24.1874 34.425 23.6478 34.2117 23.2499 33.8319C22.8521 33.4521 22.6286 32.9371 22.6286 32.4C22.6286 31.8629 22.8521 31.3479 23.2499 30.9681C23.6478 30.5884 24.1874 30.375 24.75 30.375H28.9929V26.325C28.9929 25.7879 29.2164 25.2729 29.6142 24.8931C30.0121 24.5133 30.5517 24.3 31.1143 24.3C31.6769 24.3 32.2165 24.5133 32.6144 24.8931C33.0122 25.2729 33.2357 25.7879 33.2357 26.325V30.375H37.4786C38.0412 30.375 38.5808 30.5884 38.9787 30.9681C39.3765 31.3479 39.6 31.8629 39.6 32.4C39.6 32.9371 39.3765 33.4521 38.9787 33.8319C38.5808 34.2117 38.0412 34.425 37.4786 34.425H33.2357V38.475C33.2357 39.0121 33.0122 39.5271 32.6144 39.9069C32.2165 40.2867 31.6769 40.5 31.1143 40.5Z" fill="#95EF4B"/>
</svg>
