<svg width="28" height="28" viewBox="0 0 28 28" fill="none" xmlns="http://www.w3.org/2000/svg">
<path d="M8.9 3C7.99826 3 7.13346 3.33112 6.49584 3.92052C5.85821 4.50992 5.5 5.30932 5.5 6.14286V21.8571C5.5 22.6907 5.85821 23.4901 6.49584 24.0795C7.13346 24.6689 7.99826 25 8.9 25H19.1C20.0017 25 20.8665 24.6689 21.5042 24.0795C22.1418 23.4901 22.5 22.6907 22.5 21.8571V9.93629C22.4994 9.31134 22.2304 8.7122 21.752 8.27057L16.7999 3.68986C16.563 3.47101 16.2818 3.29745 15.9723 3.17908C15.6628 3.06071 15.3311 2.99986 14.9962 3H8.9ZM7.2 6.14286C7.2 5.72609 7.37911 5.32639 7.69792 5.03169C8.01673 4.73699 8.44913 4.57143 8.9 4.57143H14V8.5C14.0053 9.21275 14.4438 10.1352 14.9444 10.5C15.4227 10.942 16.157 11 16.8333 11H20.8V21.8571C20.8 22.2739 20.6209 22.6736 20.3021 22.9683C19.9833 23.263 19.5509 23.4286 19.1 23.4286H8.9C8.44913 23.4286 8.01673 23.263 7.69792 22.9683C7.37911 22.6736 7.2 22.2739 7.2 21.8571V6.14286ZM20.4481 9.28571H16.55C16.3246 9.28571 16.1084 9.20293 15.949 9.05558C15.7896 8.90823 15.7 8.70838 15.7 8.5V4.89671L20.4481 9.28571Z" fill="#D2D2D2"/>
</svg>
