<svg width="22" height="22" viewBox="0 0 22 22" fill="none" xmlns="http://www.w3.org/2000/svg">
<path d="M6.875 5.5C6.875 5.3075 6.875 5.21263 6.886 5.13288C6.921 4.88085 7.03729 4.64713 7.21721 4.46721C7.39713 4.28729 7.63085 4.171 7.88287 4.136C7.96125 4.125 8.0575 4.125 8.25 4.125C8.4425 4.125 8.53738 4.125 8.61713 4.136C8.86915 4.171 9.10287 4.28729 9.28279 4.46721C9.46271 4.64713 9.579 4.88085 9.614 5.13288C9.625 5.21125 9.625 5.3075 9.625 5.5C9.625 5.6925 9.625 5.78738 9.614 5.86713C9.579 6.11915 9.46271 6.35287 9.28279 6.53279C9.10287 6.71271 8.86915 6.829 8.61713 6.864C8.53875 6.875 8.4425 6.875 8.25 6.875C8.0575 6.875 7.96262 6.875 7.88287 6.864C7.63085 6.829 7.39713 6.71271 7.21721 6.53279C7.03729 6.35287 6.921 6.11915 6.886 5.86713C6.875 5.78875 6.875 5.6925 6.875 5.5ZM6.875 11C6.875 10.8075 6.875 10.7126 6.886 10.6329C6.921 10.3808 7.03729 10.1471 7.21721 9.96721C7.39713 9.78729 7.63085 9.671 7.88287 9.636C7.96125 9.625 8.0575 9.625 8.25 9.625C8.4425 9.625 8.53738 9.625 8.61713 9.636C8.86915 9.671 9.10287 9.78729 9.28279 9.96721C9.46271 10.1471 9.579 10.3808 9.614 10.6329C9.625 10.7112 9.625 10.8075 9.625 11C9.625 11.1925 9.625 11.2874 9.614 11.3671C9.579 11.6192 9.46271 11.8529 9.28279 12.0328C9.10287 12.2127 8.86915 12.329 8.61713 12.364C8.53875 12.375 8.4425 12.375 8.25 12.375C8.0575 12.375 7.96262 12.375 7.88287 12.364C7.63085 12.329 7.39713 12.2127 7.21721 12.0328C7.03729 11.8529 6.921 11.6192 6.886 11.3671C6.875 11.2888 6.875 11.1925 6.875 11ZM6.875 16.5C6.875 16.3089 6.875 16.2126 6.886 16.1329C6.9212 15.8813 7.03742 15.648 7.21704 15.4684C7.39667 15.2888 7.62992 15.1726 7.8815 15.1374C7.96262 15.1264 8.0575 15.1264 8.24863 15.1264C8.43975 15.1264 8.53737 15.1264 8.61575 15.1374C8.86733 15.1726 9.10058 15.2888 9.28021 15.4684C9.45983 15.648 9.57605 15.8813 9.61125 16.1329C9.62225 16.2126 9.62225 16.3089 9.62225 16.5C9.62225 16.6911 9.62225 16.7874 9.61125 16.8671C9.57605 17.1187 9.45983 17.352 9.28021 17.5316C9.10058 17.7112 8.86733 17.8274 8.61575 17.8626C8.536 17.8736 8.43975 17.8736 8.24863 17.8736C8.0575 17.8736 7.96125 17.8736 7.8815 17.8626C7.62992 17.8274 7.39667 17.7112 7.21704 17.5316C7.03742 17.352 6.9212 17.1187 6.886 16.8671C6.875 16.7874 6.875 16.6911 6.875 16.5ZM12.375 5.5C12.375 5.3075 12.375 5.21263 12.386 5.13288C12.421 4.88085 12.5373 4.64713 12.7172 4.46721C12.8971 4.28729 13.1308 4.171 13.3829 4.136C13.4612 4.125 13.5575 4.125 13.75 4.125C13.9425 4.125 14.0374 4.125 14.1171 4.136C14.3692 4.171 14.6029 4.28729 14.7828 4.46721C14.9627 4.64713 15.079 4.88085 15.114 5.13288C15.125 5.21125 15.125 5.3075 15.125 5.5C15.125 5.6925 15.125 5.78738 15.114 5.86713C15.079 6.11915 14.9627 6.35287 14.7828 6.53279C14.6029 6.71271 14.3692 6.829 14.1171 6.864C14.0388 6.875 13.9425 6.875 13.75 6.875C13.5575 6.875 13.4626 6.875 13.3829 6.864C13.1308 6.829 12.8971 6.71271 12.7172 6.53279C12.5373 6.35287 12.421 6.11915 12.386 5.86713C12.375 5.78875 12.375 5.6925 12.375 5.5ZM12.375 11C12.375 10.8075 12.375 10.7126 12.386 10.6329C12.421 10.3808 12.5373 10.1471 12.7172 9.96721C12.8971 9.78729 13.1308 9.671 13.3829 9.636C13.4612 9.625 13.5575 9.625 13.75 9.625C13.9425 9.625 14.0374 9.625 14.1171 9.636C14.3692 9.671 14.6029 9.78729 14.7828 9.96721C14.9627 10.1471 15.079 10.3808 15.114 10.6329C15.125 10.7112 15.125 10.8075 15.125 11C15.125 11.1925 15.125 11.2874 15.114 11.3671C15.079 11.6192 14.9627 11.8529 14.7828 12.0328C14.6029 12.2127 14.3692 12.329 14.1171 12.364C14.0388 12.375 13.9425 12.375 13.75 12.375C13.5575 12.375 13.4626 12.375 13.3829 12.364C13.1308 12.329 12.8971 12.2127 12.7172 12.0328C12.5373 11.8529 12.421 11.6192 12.386 11.3671C12.375 11.2888 12.375 11.1925 12.375 11ZM12.375 16.5C12.375 16.3089 12.375 16.2126 12.386 16.1329C12.4212 15.8813 12.5374 15.648 12.717 15.4684C12.8967 15.2888 13.1299 15.1726 13.3815 15.1374C13.4626 15.1264 13.5575 15.1264 13.7486 15.1264C13.9411 15.1264 14.0374 15.1264 14.1157 15.1374C14.3673 15.1726 14.6006 15.2888 14.7802 15.4684C14.9598 15.648 15.076 15.8813 15.1112 16.1329C15.1222 16.2126 15.1223 16.3089 15.1223 16.5C15.1223 16.6911 15.1222 16.7874 15.1112 16.8671C15.076 17.1187 14.9598 17.352 14.7802 17.5316C14.6006 17.7112 14.3673 17.8274 14.1157 17.8626C14.036 17.8736 13.9397 17.8736 13.7486 17.8736C13.5575 17.8736 13.4613 17.8736 13.3815 17.8626C13.1299 17.8274 12.8967 17.7112 12.717 17.5316C12.5374 17.352 12.4212 17.1187 12.386 16.8671C12.375 16.7874 12.375 16.6911 12.375 16.5Z" fill="currentColor"/>
</svg>
