<svg width="425" height="479" viewBox="0 0 425 479" fill="none" xmlns="http://www.w3.org/2000/svg">
<path fill-rule="evenodd" clip-rule="evenodd" d="M372.672 382.923L399.639 327.257L26.0403 330.125L42.5148 374.393C47.6204 383.652 55.5033 393.892 66.1636 405.113C76.8239 416.333 96.2213 429.246 124.356 443.852L129.67 426.104L199.554 472.605L209.12 457.935L218.685 478.13L290.163 443.852L296.275 426.049L306.638 438.804L328.692 426.104L367.324 390.163C369.539 388.101 371.353 385.647 372.672 382.923Z" fill="white"/>
<path d="M129.208 426.047C125.148 416.893 121.189 398.605 117.318 371.156C117.287 370.938 117.439 370.737 117.657 370.706C117.875 370.675 118.077 370.827 118.107 371.045C121.942 398.237 125.862 416.411 129.855 425.538L199.44 471.84L208.786 457.507C219.443 441.134 227.232 428.3 232.15 419.009C237.068 409.721 242.021 398.488 247.01 385.308L247.756 385.591C242.755 398.799 237.789 410.063 232.855 419.382C227.942 428.663 220.182 441.453 209.575 457.755L218.874 477.387L289.841 443.354L296.131 425.03L306.733 438.078L328.454 425.571L367.052 389.66C369.231 387.633 371.016 385.218 372.313 382.539L399.001 327.45L26.6122 330.309L42.878 374.016C47.9658 383.235 55.8239 393.44 66.4525 404.627C77.0217 415.752 96.2444 428.57 124.112 443.066L129.208 426.047ZM199.668 472.949L129.897 426.524L124.599 444.217L124.172 443.995C96.0016 429.371 76.5721 416.436 65.8746 405.177C55.1926 393.933 47.2896 383.667 42.1657 374.375L42.1412 374.322L25.4683 329.52L400.277 326.643L373.031 382.886C371.69 385.654 369.847 388.149 367.595 390.244L328.964 426.185L328.891 426.239L306.543 439.108L296.419 426.647L290.486 443.929L218.497 478.452L209.064 458.539L199.668 472.949ZM289.786 443.512L289.991 443.282L289.841 443.354L289.786 443.512Z" fill="#575757"/>
<path fill-rule="evenodd" clip-rule="evenodd" d="M212.84 361.058C217.73 361.058 224.602 360.756 233.455 360.152L247.117 387.044L254.292 371.101L259.872 374.023L266.515 360.206C355.264 348.713 399.639 338.228 399.639 328.752C399.639 320.127 383.071 315.831 356.327 309.69C336.896 305.227 312.298 298.1 283.786 295.844C276.198 295.244 267.858 296.268 259.872 295.844C244.714 295.039 229.396 293.035 212.84 293.035C191.115 293.035 170.853 294.54 151.459 295.844C108.969 298.701 76.2436 306.567 53.9407 313.703C38.082 318.777 25.7747 322.38 25.7747 328.852C25.7747 336.883 52.1563 344.442 104.92 351.528L117.713 371.421L122.496 353.433C126.386 353.857 129.326 354.183 131.317 354.411C155.945 357.243 183.649 361.058 212.84 361.058Z" fill="#575757"/>
<path fill-rule="evenodd" clip-rule="evenodd" d="M77.7371 312.591C115.438 225.023 141.252 169.86 155.179 147.101C169.705 123.364 180.068 108.838 186.268 103.524V316.009C186.268 321.089 182.988 325.587 178.152 327.14C165.225 331.293 148.976 333.369 129.405 333.369C112.103 333.369 97.444 331.746 85.4275 328.501C79.1937 326.818 75.505 320.4 77.1885 314.166C77.3337 313.628 77.517 313.102 77.7371 312.591Z" fill="white"/>
<path d="M153.717 175.465V150.565C144.213 166.877 129.96 196.127 110.964 238.308L153.717 175.465ZM109.355 241.885C100.117 262.462 89.7884 286.013 78.3686 312.538C78.156 313.032 77.9789 313.54 77.8387 314.059C76.2126 320.08 79.7755 326.28 85.7968 327.906C88.5489 328.649 91.4407 329.307 94.472 329.88L109.355 241.885H109.355ZM95.2882 330.031C105.262 331.85 116.723 332.76 129.67 332.76C135.301 332.76 140.657 332.588 145.735 332.243L139.733 255.259L95.2882 330.031ZM139.653 253.833L153.393 177.36L110.385 240.575L95.6104 327.929L139.653 253.833ZM154.5 175.707L141.108 250.244L171.255 175.511C171.256 175.491 171.259 175.47 171.264 175.449L186.135 106.193V105.749L154.5 175.707ZM140.438 254.037L146.434 330.947L185.586 256.036L171.504 177.023L140.438 254.037ZM186.135 109.99L172.438 173.776L186.135 154.943V109.99ZM186.135 156.298L172.068 175.641L186.135 254.574V156.298ZM186.932 155.078V315.798C186.932 321.051 183.54 325.703 178.539 327.309C165.569 331.476 149.28 333.557 129.67 333.557C112.336 333.557 97.6425 331.931 85.5889 328.675C79.1427 326.935 75.3282 320.298 77.0691 313.851C77.2192 313.296 77.4088 312.751 77.6364 312.222C115.346 224.636 141.164 169.463 155.105 146.682C169.653 122.907 180.031 108.362 186.274 103.01L186.932 102.446V102.937C186.943 102.941 186.953 102.945 186.963 102.95C187.164 103.04 187.253 103.276 187.162 103.477L186.932 103.986V106.227C186.932 106.233 186.932 106.238 186.932 106.243V155.068C186.932 155.071 186.932 155.074 186.932 155.078ZM185.834 104.48C179.587 110.372 169.559 124.588 155.785 147.099C155.35 147.809 154.904 148.551 154.446 149.324C154.489 149.388 154.515 149.465 154.515 149.548V173.739L185.834 104.48ZM186.135 256.707L146.691 332.176C158.825 331.296 169.36 329.421 178.296 326.55C182.967 325.05 186.135 320.705 186.135 315.798V256.707Z" fill="#575757"/>
<path fill-rule="evenodd" clip-rule="evenodd" d="M186.229 103.535C186.33 103.549 186.432 103.564 186.534 103.578L129.67 130.947L120.104 113.144L112.93 125.102L90.3439 130.947V117.396L78.9181 130.947L61.9122 135.199C62.4436 134.136 70.7694 126.784 86.8896 113.144C102.954 99.5513 135.995 96.3377 186.012 103.503C186.06 103.396 186.107 103.289 186.155 103.182L122.513 81.1811V68.732L103.63 73.5733L84.7462 64.8129L88.2005 51.6722L62.6385 57.8968L44.9063 51.6722L49.0514 38.9926L27.8649 47.9836L0 44.0645C10.7468 29.0027 37.0764 21.4718 78.9889 21.4718C120.789 21.4718 156.557 48.6054 186.293 102.873C211.873 45.5908 244.007 13.58 282.696 6.84025C321.584 0.0658252 343.035 -1.67667 347.049 1.61275L320.455 21.206L302.851 21.3294L308.764 30.5062L274.752 52.5607L263.592 45.6521V56.5465L237.286 70.8952L227.188 66.9094L223.734 78.0696L186.229 103.535ZM186.799 103.366C211.086 93.136 233.583 88.4241 254.292 89.2297C275 90.0353 292.714 96.3117 307.435 108.059L288.569 110.753L276.346 108.096V117.396L254.254 123.507L247.019 108.059L243.696 123.507L221.797 121.552V110.797L214.172 117.054L186.799 103.366Z" fill="#575757"/>
<path fill-rule="evenodd" clip-rule="evenodd" d="M334.691 230.193L346.382 245.073L367.374 231.256L370.377 221.496C370.501 221.094 370.6 220.686 370.676 220.272L372.987 207.561C373.2 206.385 372.421 205.259 371.246 205.046C370.071 204.832 368.945 205.612 368.731 206.787C368.698 206.97 368.688 207.156 368.703 207.341C368.822 208.879 366.438 213.36 361.55 220.784L367.374 207.341L362.898 198.424L344.257 215.313L334.691 230.193Z" fill="white"/>
<path d="M367.665 207.391L362.871 197.838L343.841 215.079L343.773 215.159L334.054 230.278L346.147 245.669L367.564 231.572L370.61 221.675C370.738 221.258 370.841 220.834 370.919 220.405L373.231 207.694C373.484 206.302 372.56 204.968 371.169 204.715C369.777 204.462 368.444 205.385 368.19 206.777C368.151 206.994 368.14 207.215 368.157 207.434C368.244 208.548 366.757 211.604 363.727 216.483L367.665 207.391ZM344.415 215.635L362.629 199.133L366.786 207.416L361.036 220.687L361.735 221.065C366.696 213.529 369.082 209.045 368.952 207.372C368.94 207.221 368.948 207.069 368.975 206.92C369.149 205.961 370.067 205.325 371.026 205.5C371.985 205.674 372.62 206.592 372.446 207.551L370.135 220.262C370.063 220.661 369.967 221.054 369.848 221.441L366.887 231.064L346.321 244.601L335.031 230.232L344.415 215.635Z" fill="#575757"/>
<path fill-rule="evenodd" clip-rule="evenodd" d="M183.191 212.349L183.877 214.166L196.1 213.607L202.477 224.236L183.877 224.231C183.877 227.905 186.855 230.884 190.529 230.884C190.698 230.884 190.867 230.877 191.035 230.864L209.393 229.464C213.098 229.182 216.493 227.291 218.686 224.291L216.826 208.293L216.408 208.049C214.578 206.982 212.559 206.277 210.462 205.974L189.722 202.979C185.898 202.949 182.774 206.026 182.745 209.85C182.738 210.704 182.89 211.55 183.191 212.349Z" fill="white"/>
<path d="M201.773 223.76L183.478 223.756V224.154C183.478 228.049 186.635 231.205 190.529 231.205C190.708 231.205 190.887 231.199 191.065 231.185L209.423 229.785C213.245 229.493 216.747 227.544 219.008 224.449L219.1 224.323L217.199 207.972L216.609 207.628C214.734 206.535 212.667 205.813 210.519 205.503L189.779 202.507L189.725 202.503C185.681 202.472 182.377 205.726 182.346 209.771C182.34 210.673 182.499 211.569 182.818 212.413L183.606 214.5L195.88 213.939L201.773 223.76ZM210.405 206.292C212.451 206.588 214.421 207.275 216.207 208.317L216.453 208.46L218.272 224.104C216.146 226.938 212.9 228.72 209.363 228.99L191.005 230.39C190.846 230.402 190.688 230.408 190.529 230.408C187.209 230.408 184.493 227.821 184.288 224.553L203.181 224.558L196.319 213.121L184.147 213.677L183.564 212.131C183.28 211.379 183.137 210.581 183.144 209.777C183.171 206.181 186.101 203.287 189.693 203.3L210.405 206.292Z" fill="#575757"/>
<path fill-rule="evenodd" clip-rule="evenodd" d="M360.286 320.279L381.421 301.749L423.16 326.605C424.13 327.183 424.722 328.229 424.717 329.357C424.711 331.118 423.277 332.54 421.516 332.534L369.691 332.333C365.683 332.317 362.23 329.505 361.404 325.583L360.286 320.279ZM316.735 334.185L349.676 329.532L364.958 369.49C365.544 371.024 365.303 372.752 364.317 374.067C362.733 376.18 359.735 376.61 357.622 375.025L320.674 347.334C318.531 345.728 317.211 343.253 317.07 340.578L316.735 334.185Z" fill="white"/>
<path d="M359.732 320.188L381.26 301.313L423.248 326.318C424.339 326.967 425.005 328.145 425 329.414C424.992 331.395 423.38 332.995 421.399 332.987L369.573 332.786C365.377 332.77 361.763 329.826 360.898 325.721L359.732 320.188ZM361.678 325.556C362.465 329.294 365.756 331.975 369.576 331.989L421.402 332.19C422.943 332.196 424.197 330.952 424.203 329.411C424.207 328.424 423.688 327.508 422.84 327.003L381.349 302.294L360.608 320.48L361.678 325.556ZM316.202 333.896L349.819 329.148L365.214 369.402C365.849 371.065 365.588 372.937 364.52 374.361C362.804 376.651 359.556 377.116 357.267 375.399L320.319 347.708C318.081 346.031 316.703 343.447 316.556 340.654L316.202 333.896ZM317.352 340.612C317.486 343.169 318.748 345.535 320.797 347.07L357.745 374.762C359.682 376.214 362.43 375.82 363.882 373.883C364.786 372.678 365.007 371.094 364.469 369.687L349.301 330.026L317.036 334.584L317.352 340.612Z" fill="#575757"/>
<path d="M362.97 274.38C375.276 274.38 385.252 264.404 385.252 252.098C385.252 247.545 383.857 243.101 381.256 239.365L366.956 215.656L365.6 218.275L379.075 240.883C381.367 244.174 382.595 248.088 382.595 252.098C382.595 262.936 373.809 271.722 362.97 271.722V274.38Z" fill="#95EF4B"/>
<path d="M362.72 274.833C375.246 274.833 385.4 264.679 385.4 252.153C385.4 247.519 383.981 242.995 381.332 239.192L367.047 215.505L366.679 214.896L364.894 218.344L378.482 241.143C380.743 244.39 381.946 248.224 381.946 252.153C381.946 262.771 373.338 271.379 362.72 271.379H362.321V274.833H362.72ZM363.118 272.172C373.993 271.96 382.743 263.078 382.743 252.153C382.743 248.062 381.49 244.068 379.152 240.711L365.805 218.317L366.732 216.527L380.664 239.626C383.233 243.317 384.603 247.681 384.603 252.153C384.603 264.106 375.02 273.82 363.118 274.033V272.172Z" fill="#575757"/>
<path d="M192.911 218.082C194.957 217.686 196.374 217.952 197.162 218.879C201.034 223.435 201.778 229.924 202.218 234.228C204.657 258.102 203.925 283.737 199.091 298.242C195.675 308.488 201.212 319.562 211.458 322.977C220.208 325.894 229.807 322.3 234.489 314.353C242.999 299.911 252.418 287.087 258.809 272.288L256.369 271.235C250.023 285.931 240.654 298.656 232.2 313.004C228.154 319.871 219.86 322.977 212.298 320.456C203.445 317.505 198.66 307.936 201.611 299.082C206.595 284.131 207.335 258.178 204.861 233.958C204.327 228.732 202.477 220.208 197.96 215.956C197.251 215.289 195.568 215.023 192.911 215.159V218.082Z" fill="#95EF4B"/>
<path d="M192.986 218.705C194.906 218.333 196.182 218.573 196.859 219.369C199.949 223.005 201.083 227.277 201.821 234.5C204.386 259.605 203.312 284.548 198.712 298.347C195.228 308.802 200.878 320.102 211.332 323.587C220.261 326.563 230.055 322.895 234.833 314.787C236.57 311.838 238.381 308.888 240.818 305.007C240.655 305.268 245.255 297.971 246.52 295.937C252.355 286.556 256.086 279.831 259.175 272.678L259.333 272.312L256.161 270.942L256.003 271.308C252.961 278.354 249.279 284.987 243.511 294.25C242.257 296.264 237.697 303.491 237.853 303.242C235.411 307.128 233.597 310.079 231.857 313.033C227.906 319.738 219.807 322.771 212.424 320.31C203.78 317.428 199.108 308.084 201.989 299.44C206.766 285.11 207.876 259.78 205.258 234.149C204.499 226.724 202.14 219.575 198.233 215.897C197.418 215.13 195.652 214.851 192.89 214.992L192.512 215.012V218.796L192.986 218.705ZM193.309 215.772C195.642 215.684 197.114 215.939 197.686 216.478C201.418 219.99 203.724 226.98 204.465 234.23C207.072 259.758 205.967 284.986 201.233 299.188C198.212 308.25 203.11 318.045 212.172 321.066C219.912 323.646 228.402 320.467 232.543 313.438C234.28 310.491 236.089 307.546 238.528 303.667C238.371 303.917 242.933 296.688 244.188 294.672C249.875 285.538 253.546 278.944 256.577 271.99L258.284 272.727C255.245 279.702 251.559 286.326 245.843 295.516C244.58 297.547 239.981 304.842 240.143 304.583C237.703 308.47 235.888 311.426 234.146 314.382C229.559 322.167 220.156 325.688 211.584 322.83C201.547 319.485 196.123 308.636 199.469 298.599C204.111 284.672 205.189 259.626 202.614 234.419C201.861 227.041 200.695 222.652 197.466 218.852C196.633 217.873 195.236 217.549 193.309 217.84V215.772Z" fill="#575757"/>
<path fill-rule="evenodd" clip-rule="evenodd" d="M166.848 205.253L166.781 230.052C166.777 231.226 167.727 232.18 168.901 232.183C168.973 232.184 169.046 232.18 169.118 232.173L182.128 230.87C188.913 230.191 194.115 224.541 194.234 217.723C194.352 210.961 189.277 205.231 182.55 204.532L169.193 203.145C168.026 203.023 166.981 203.871 166.859 205.039C166.852 205.11 166.848 205.182 166.848 205.253Z" fill="#95EF4B"/>
<path d="M166.398 230.106C166.394 231.5 167.521 232.633 168.915 232.637C169.001 232.637 169.088 232.633 169.173 232.624L182.183 231.322C189.169 230.622 194.526 224.805 194.648 217.785C194.77 210.816 189.54 204.911 182.606 204.191L169.25 202.803C167.863 202.659 166.622 203.666 166.478 205.053C166.47 205.137 166.465 205.222 166.465 205.307L166.398 230.106ZM167.271 205.135C167.37 204.187 168.219 203.497 169.168 203.596L182.524 204.984C189.046 205.661 193.966 211.215 193.851 217.771C193.736 224.387 188.687 229.869 182.104 230.528L169.094 231.831C169.035 231.837 168.976 231.84 168.917 231.84C167.963 231.837 167.192 231.062 167.195 230.108L167.262 205.309C167.262 205.251 167.265 205.193 167.271 205.135Z" fill="#575757"/>
<path fill-rule="evenodd" clip-rule="evenodd" d="M154.515 211.34V214.794H166.472V211.34H154.515ZM154.515 222.5V225.954H166.472V222.5H154.515Z" fill="#575757" stroke="#575757" stroke-width="1.03299"/>
<path fill-rule="evenodd" clip-rule="evenodd" d="M299.724 213.414L274.308 212.428C267.343 211.982 260.53 214.601 255.658 219.599L252.971 222.354L234.637 241.752C231.166 224.08 228.509 219.42 226.134 215.125C224.551 212.262 220.299 209.427 213.38 206.622L212.582 243.877L212.055 258.359C211.692 268.332 219.482 276.711 229.454 277.074C235.826 277.306 241.848 274.163 245.301 268.803L252.971 256.898L250.314 279.218L280.889 276.018C288.035 275.415 299.341 269.719 299.715 262.558L331.624 270.128L348.625 249.169L349.055 248.638C350.164 247.27 350.032 245.279 348.753 244.07L334.416 230.519L334.377 230.481C332.834 229.023 330.419 229.027 328.881 230.492L314.884 243.822L311.286 223.498C310.284 217.835 305.471 213.637 299.724 213.414Z" fill="white"/>
<path d="M226.74 214.666C225.101 211.701 220.784 208.824 213.787 205.986C213.528 205.882 213.245 206.068 213.239 206.347L212.441 243.603L211.914 258.079C211.543 268.272 219.505 276.835 229.697 277.206C236.209 277.444 242.364 274.231 245.894 268.753L252.629 258.299L250.176 278.905C250.146 279.159 250.359 279.375 250.613 279.348L281.188 276.149C289.647 275.435 299.541 269.256 300.329 262.786L331.789 270.25C331.938 270.285 332.094 270.232 332.191 270.113L349.622 248.623C350.862 247.094 350.715 244.867 349.284 243.514L334.908 229.926C333.211 228.321 330.555 228.326 328.863 229.937L315.404 242.755L311.936 223.162C310.901 217.315 305.931 212.98 299.997 212.75L274.581 211.764C267.51 211.311 260.584 213.974 255.63 219.055L252.944 221.81L235.136 240.65C232.35 226.616 230.47 221.411 226.74 214.666ZM331.572 269.611L331.973 269.475L331.73 269.417L331.572 269.611ZM300.065 261.904C299.822 261.847 299.588 262.023 299.575 262.271C299.254 268.412 289.438 274.653 281.113 275.355L251.027 278.504L253.625 256.679C253.675 256.259 253.123 256.06 252.894 256.416L245.223 268.321C241.847 273.563 235.957 276.637 229.726 276.41C219.974 276.054 212.355 267.861 212.711 258.108L213.238 243.626L214.023 206.945C220.548 209.646 224.556 212.363 226.043 215.052C229.798 221.842 231.65 227.034 234.503 241.563C234.566 241.881 234.961 241.995 235.184 241.76L253.519 222.362L256.201 219.611C260.992 214.697 267.691 212.121 274.54 212.56L299.966 213.546C305.525 213.762 310.182 217.823 311.151 223.301L314.749 243.626C314.804 243.939 315.186 244.064 315.416 243.845L329.413 230.514C330.797 229.196 332.971 229.192 334.36 230.505L348.736 244.093C349.865 245.16 349.981 246.915 349.003 248.121L331.73 269.417L300.065 261.904Z" fill="#575757"/>
<path fill-rule="evenodd" clip-rule="evenodd" d="M280.863 321.622H294.25C299.46 321.622 304.457 319.554 308.144 315.873L341.713 282.351L359.781 323.803L397.779 311.314L368.81 260.619C362.395 249.392 348.346 245.103 336.754 250.831L311.687 263.219L273.706 305.595C270.162 309.548 270.495 315.625 274.448 319.168C276.211 320.748 278.496 321.622 280.863 321.622Z" fill="white"/>
<path d="M359.827 324.35L398.633 311.596L369.422 260.476C362.902 249.066 348.625 244.707 336.844 250.529L311.707 262.951L273.675 305.384C269.984 309.501 270.331 315.83 274.448 319.52C276.284 321.166 278.663 322.076 281.129 322.076H294.516C299.831 322.076 304.93 319.966 308.691 316.21L341.847 283.101L359.827 324.35ZM337.197 251.244C348.6 245.609 362.419 249.828 368.73 260.872L397.456 311.143L360.268 323.366L342.11 281.711L308.128 315.646C304.516 319.253 299.62 321.279 294.516 321.279H281.129C278.859 321.279 276.67 320.441 274.98 318.926C271.191 315.53 270.872 309.705 274.268 305.916L312.198 263.598L337.197 251.244Z" fill="#575757"/>
<path fill-rule="evenodd" clip-rule="evenodd" d="M250.572 278.842L245.371 301.406C243.102 311.249 249.243 321.067 259.085 323.336C260.433 323.646 261.811 323.803 263.193 323.803H279.057C283.56 323.803 287.82 321.764 290.645 318.258L302.918 303.022L311.687 336.557L354.201 331.454L343.629 271.224C341.294 257.926 328.622 249.039 315.324 251.373C313.418 251.708 311.559 252.267 309.785 253.04L250.572 278.842Z" fill="white"/>
<path d="M303.567 303.984L311.984 336.176L353.736 331.163L343.236 271.348C340.94 258.267 328.474 249.525 315.393 251.821C313.518 252.15 311.689 252.7 309.945 253.461L250.915 279.182L245.759 301.55C243.54 311.179 249.547 320.783 259.175 323.003C260.493 323.306 261.841 323.46 263.193 323.46H279.057C283.439 323.46 287.586 321.475 290.335 318.063L302.546 302.904L299.607 290.414C299.557 290.2 299.69 289.985 299.904 289.935C300.118 289.884 300.333 290.017 300.383 290.231L303.572 303.783C303.588 303.852 303.585 303.92 303.567 303.984ZM311.389 337.05L302.732 303.943L290.955 318.563C288.055 322.163 283.68 324.257 279.057 324.257H263.193C261.781 324.257 260.372 324.097 258.996 323.779C248.938 321.461 242.664 311.429 244.983 301.371L250.228 278.612L309.626 252.73C311.429 251.944 313.318 251.376 315.255 251.036C328.77 248.663 341.649 257.696 344.021 271.211L354.667 331.854L311.389 337.05Z" fill="#575757"/>
<path fill-rule="evenodd" clip-rule="evenodd" d="M351.646 184.447L341.969 224.836C341.286 227.69 343.045 230.558 345.899 231.242C346.305 231.339 346.721 231.389 347.138 231.389H359.038C361.506 231.389 363.649 229.69 364.213 227.287L373.679 186.898C374.349 184.04 372.575 181.181 369.717 180.511C369.32 180.418 368.913 180.371 368.505 180.371H356.814C354.356 180.371 352.219 182.056 351.646 184.447Z" fill="#575757"/>
<path fill-rule="evenodd" clip-rule="evenodd" d="M281.677 213.209L284.453 204.762H277.734C265.521 204.762 255.62 194.861 255.62 182.648C255.62 180.831 255.844 179.022 256.287 177.26L259.56 164.229C261.697 155.722 269.345 149.758 278.115 149.758H282.858C293.106 149.758 301.412 158.065 301.412 168.312C301.412 168.671 301.402 169.03 301.381 169.388L298.682 214.272" fill="white"/>
<path d="M281.282 212.875L282.039 213.123L284.987 204.153H277.718C265.725 204.153 256.003 194.43 256.003 182.437C256.003 180.653 256.223 178.877 256.657 177.147L259.931 164.115C262.023 155.786 269.511 149.946 278.099 149.946H282.843C292.869 149.946 300.998 158.075 300.998 168.102C300.998 168.453 300.988 168.804 300.967 169.155L298.269 214.038L299.064 214.086L301.763 169.202C301.784 168.835 301.795 168.468 301.795 168.102C301.795 157.634 293.31 149.149 282.843 149.149H278.099C269.146 149.149 261.339 155.237 259.158 163.921L255.884 176.952C255.434 178.746 255.206 180.588 255.206 182.437C255.206 194.871 265.285 204.95 277.718 204.95H283.886L281.282 212.875Z" fill="#575757"/>
<path fill-rule="evenodd" clip-rule="evenodd" d="M8.50293 371.101L22.3202 394.75C13.1087 412.819 8.50293 421.853 8.50293 421.853C8.50293 421.853 17.183 414.59 34.5432 400.064L40.0081 404.969L34.5432 418.399L52.662 414.728C61.4556 419.478 67.4618 421.853 70.6808 421.853C74.9294 421.853 80.0899 419.566 86.1623 414.991C89.7444 412.293 95.6453 406.595 103.865 397.897C105.56 396.103 105.612 393.315 103.986 391.459C89.7633 375.23 78.6615 367.115 70.6808 367.115C62.1779 367.115 50.132 373.935 34.5432 387.575L8.50293 371.101Z" fill="#95EF4B"/>
<path d="M21.8663 394.763L8.14789 421.672C7.95079 422.058 8.42595 422.437 8.75876 422.158L34.5341 400.591L39.5333 405.078L34.1741 418.248C34.0542 418.543 34.3107 418.852 34.6224 418.789L52.5998 415.147C61.383 419.883 67.3879 422.251 70.6809 422.251C75.0322 422.251 80.2671 419.931 86.4022 415.309C90.0074 412.594 95.9203 406.884 104.155 398.17C105.991 396.227 106.048 393.207 104.286 391.196C89.9906 374.884 78.8161 366.716 70.6809 366.716C62.0938 366.716 50.0531 373.51 34.505 387.079L8.71608 370.764C8.36325 370.541 7.94822 370.941 8.15884 371.302L21.8663 394.763ZM34.3302 387.912C34.4794 388.006 34.6729 387.991 34.8058 387.875C50.3267 374.294 62.3032 367.513 70.6809 367.513C78.507 367.513 89.5361 375.575 103.686 391.722C105.177 393.423 105.129 395.979 103.576 397.623C95.3705 406.305 89.4814 411.992 85.9225 414.673C79.9128 419.2 74.8268 421.454 70.6809 421.454C67.5518 421.454 61.5862 419.095 52.8515 414.377C52.7694 414.333 52.6744 414.319 52.5829 414.337L35.1926 417.86L40.3774 405.119C40.4407 404.963 40.3995 404.784 40.2744 404.672L34.8095 399.767C34.662 399.635 34.4396 399.631 34.2875 399.758L9.7452 420.294L22.6754 394.931C22.737 394.81 22.7329 394.666 22.6644 394.548L9.67245 372.312L34.3302 387.912Z" fill="#575757"/>
<path fill-rule="evenodd" clip-rule="evenodd" d="M163.971 411.864L156.773 421.853C161.572 429.647 163.971 433.544 163.971 433.544C163.971 433.544 167.665 430.442 175.053 424.236C201.263 430.442 216.165 433.544 219.758 433.544C222.754 433.544 228.358 430.888 236.573 425.576C238.544 424.301 239.109 421.669 237.834 419.697C237.522 419.215 237.116 418.801 236.639 418.48C228.409 412.934 222.782 410.161 219.758 410.161C216.139 410.161 201.238 413.075 175.053 418.902L163.971 411.864Z" fill="#95EF4B"/>
<path d="M219.758 433.943C222.86 433.943 228.508 431.266 236.789 425.911C238.946 424.516 239.563 421.637 238.168 419.481C237.827 418.953 237.383 418.501 236.862 418.15C228.563 412.558 222.891 409.763 219.758 409.763C216.102 409.763 201.265 412.662 175.128 418.477L163.868 411.326L156.294 421.835L163.874 434.147L175.156 424.67C201.301 430.858 216.126 433.943 219.758 433.943ZM174.979 419.326L175.14 419.291C201.272 413.475 216.185 410.56 219.758 410.56C222.672 410.56 228.254 413.311 236.417 418.811C236.848 419.101 237.216 419.477 237.499 419.914C238.655 421.7 238.143 424.086 236.356 425.241C228.209 430.51 222.648 433.146 219.758 433.146C216.213 433.146 201.299 430.041 175.145 423.849L174.95 423.803L164.069 432.942L157.252 421.87L164.075 412.402L174.979 419.326Z" fill="#575757"/>
<path fill-rule="evenodd" clip-rule="evenodd" d="M309.826 411.462L311.686 429.027C310.446 442.313 309.826 448.956 309.826 448.956C309.826 448.956 316.207 443.59 328.97 432.859C340.473 443.59 349.328 448.956 355.536 448.956C360.413 448.956 366.925 444.835 375.072 436.594C379.327 432.29 379.594 425.451 375.688 420.828C370.934 415.203 366.695 411.116 362.97 408.567C357.644 404.922 348.925 401.379 336.812 397.938L338.924 414.16L328.97 423.633L309.826 411.462Z" fill="#95EF4B"/>
<path fill-rule="evenodd" clip-rule="evenodd" d="M309.826 411.197L311.686 428.762C310.446 442.047 309.826 448.69 309.826 448.69C309.826 448.69 316.207 443.325 328.97 432.594C340.473 443.325 349.328 448.69 355.536 448.69C360.413 448.69 366.925 444.57 375.072 436.329C379.327 432.025 379.594 425.185 375.688 420.563C370.934 414.938 366.695 410.851 362.97 408.301C357.644 404.657 348.925 401.114 336.812 397.673L338.924 413.895L328.97 423.368L309.826 411.197Z" fill="#95EF4B" stroke="#575757" stroke-width="1.03299" stroke-linejoin="round"/>
<path fill-rule="evenodd" clip-rule="evenodd" d="M192.911 212.467H195.037C196.211 212.467 197.162 213.419 197.162 214.593V220.97C197.162 222.144 196.211 223.096 195.037 223.096H192.911V212.467Z" fill="#95EF4B"/>
<path d="M192.911 212.467H195.037C196.211 212.467 197.162 213.419 197.162 214.593V220.97C197.162 222.144 196.211 223.096 195.037 223.096H192.911V212.467ZM193.708 213.265V222.299H195.037C195.77 222.299 196.365 221.704 196.365 220.97V214.593C196.365 213.859 195.77 213.265 195.037 213.265H193.708Z" fill="#575757"/>
<path d="M352.607 229.208C351.726 229.208 351.013 228.494 351.013 227.613C351.013 226.733 351.726 226.019 352.607 226.019C352.964 226.019 353.304 226.137 353.581 226.351C353.969 226.651 354.201 227.113 354.201 227.613C354.201 228.494 353.488 229.208 352.607 229.208ZM352.607 228.676C353.194 228.676 353.67 228.2 353.67 227.613C353.67 227.28 353.515 226.972 353.256 226.772C353.071 226.629 352.846 226.55 352.607 226.55C352.02 226.55 351.544 227.026 351.544 227.613C351.544 228.2 352.02 228.676 352.607 228.676ZM359.564 181.378H365.402L365.631 180.006L366.155 180.094L365.852 181.91H358.936L359.254 180.006L359.778 180.094L359.564 181.378Z" fill="white"/>
<path fill-rule="evenodd" clip-rule="evenodd" d="M375.193 426.321L368.903 424.195C367.468 423.71 365.913 423.71 364.478 424.195L358.187 426.321L363.891 428.849C365.673 429.639 367.707 429.639 369.49 428.849L375.193 426.321Z" fill="white"/>
<path d="M375.321 425.944C375.665 426.06 375.687 426.539 375.355 426.686L369.651 429.214C367.766 430.05 365.615 430.05 363.729 429.214L358.026 426.686C357.694 426.539 357.715 426.06 358.06 425.944L364.35 423.818C365.868 423.305 367.512 423.305 369.03 423.818L375.321 425.944ZM369.328 428.485L374.097 426.372L368.775 424.573C367.423 424.116 365.958 424.116 364.605 424.573L359.284 426.372L364.052 428.485C365.732 429.23 367.648 429.23 369.328 428.485ZM366.69 427.699C366.103 427.699 365.627 427.223 365.627 426.636C365.627 426.049 366.103 425.573 366.69 425.573C367.277 425.573 367.753 426.049 367.753 426.636C367.753 427.223 367.277 427.699 366.69 427.699Z" fill="#575757"/>
<path fill-rule="evenodd" clip-rule="evenodd" d="M229.58 421.539L223.289 419.412C221.854 418.927 220.3 418.927 218.865 419.412L212.574 421.539L218.278 424.067C220.06 424.857 222.094 424.857 223.876 424.067L229.58 421.539Z" fill="white"/>
<path d="M229.708 421.161C230.052 421.277 230.074 421.756 229.742 421.903L224.038 424.431C222.152 425.267 220.002 425.267 218.116 424.431L212.413 421.903C212.081 421.756 212.102 421.277 212.446 421.161L218.737 419.035C220.255 418.521 221.899 418.521 223.417 419.035L229.708 421.161ZM223.715 423.702L228.483 421.589L223.162 419.79C221.81 419.333 220.345 419.333 218.992 419.79L213.671 421.589L218.439 423.702C220.119 424.447 222.035 424.447 223.715 423.702ZM221.077 422.916C220.49 422.916 220.014 422.44 220.014 421.853C220.014 421.266 220.49 420.79 221.077 420.79C221.664 420.79 222.14 421.266 222.14 421.853C222.14 422.44 221.664 422.916 221.077 422.916Z" fill="#575757"/>
<path fill-rule="evenodd" clip-rule="evenodd" d="M93.0013 393.904L86.7107 391.777C85.2757 391.292 83.721 391.292 82.2859 391.777L75.9954 393.904L81.699 396.432C83.4816 397.222 85.5151 397.222 87.2977 396.432L93.0013 393.904Z" fill="white"/>
<path d="M93.1288 393.526L86.8383 391.4C85.3204 390.887 83.676 390.887 82.1582 391.4L75.8676 393.526C75.5235 393.643 75.5017 394.121 75.8338 394.268L81.5374 396.796C83.4228 397.632 85.5736 397.632 87.4591 396.796L93.1627 394.268C93.4948 394.121 93.473 393.643 93.1288 393.526ZM87.1361 396.067C85.4563 396.812 83.5401 396.812 81.8604 396.067L77.0918 393.954L82.4135 392.155C83.7657 391.698 85.2307 391.698 86.583 392.155L91.9046 393.954L87.1361 396.067Z" fill="#575757"/>
<path d="M262.855 180.6C262.728 180.78 262.479 180.823 262.299 180.697C262.119 180.57 262.076 180.321 262.203 180.141C262.931 179.108 263.759 178.591 264.678 178.644C265.974 178.72 267.862 179.588 268.919 180.617C269.076 180.77 269.08 181.023 268.926 181.18C268.772 181.338 268.52 181.341 268.362 181.188C267.44 180.29 265.732 179.504 264.632 179.44C264.027 179.405 263.438 179.773 262.855 180.6ZM274.285 168.102C276.156 166.898 277.207 166.269 277.553 166.155C278.094 165.977 278.672 165.91 279.306 165.931C279.857 165.95 280.277 166.01 281.169 166.17C281.812 166.286 282.073 166.324 282.328 166.325C282.466 166.325 282.638 166.318 282.889 166.302C282.975 166.296 283.469 166.262 283.62 166.252C284.006 166.228 284.321 166.215 284.624 166.214C285.302 166.212 285.854 166.272 286.305 166.421C286.755 166.57 287.722 167.17 289.275 168.253C290.419 169.05 290.7 170.623 289.902 171.767C289.707 172.047 289.458 172.284 289.168 172.465C287.636 173.422 286.703 173.953 286.307 174.086C285.903 174.221 285.487 174.296 285.039 174.321C284.573 174.347 284.25 174.33 283.434 174.26C283.012 174.223 282.798 174.209 282.571 174.208C282.38 174.207 282.166 174.219 281.89 174.245C281.724 174.261 281.095 174.329 281.093 174.329C279.639 174.48 278.659 174.447 277.554 174.087C277.162 173.959 276.131 173.411 274.394 172.414C273.185 171.72 272.768 170.177 273.462 168.968C273.663 168.618 273.945 168.321 274.285 168.102ZM274.716 168.773C274.484 168.922 274.291 169.125 274.153 169.365C273.678 170.192 273.964 171.248 274.791 171.723C276.461 172.682 277.486 173.227 277.801 173.329C278.777 173.647 279.658 173.677 281.011 173.536C281.008 173.536 281.643 173.468 281.816 173.451C282.116 173.423 282.354 173.41 282.575 173.411C282.831 173.412 283.06 173.427 283.503 173.465C284.28 173.533 284.579 173.549 284.994 173.525C285.374 173.504 285.721 173.442 286.053 173.33C286.363 173.226 287.281 172.703 288.746 171.789C288.944 171.665 289.115 171.503 289.248 171.311C289.794 170.529 289.602 169.452 288.819 168.907C287.343 167.878 286.399 167.292 286.055 167.178C285.701 167.061 285.226 167.009 284.626 167.011C284.342 167.012 284.042 167.024 283.67 167.048C283.523 167.057 283.03 167.092 282.941 167.097C282.673 167.115 282.485 167.123 282.324 167.122C282.005 167.12 281.721 167.08 281.028 166.955C280.174 166.801 279.779 166.745 279.28 166.728C278.733 166.71 278.246 166.766 277.801 166.912C277.555 166.993 276.488 167.633 274.716 168.773ZM265.436 166.897C265.505 166.688 265.731 166.575 265.939 166.644C266.148 166.714 266.262 166.939 266.193 167.148L263.353 175.721C263.238 176.07 263.426 176.445 263.775 176.561C263.899 176.602 264.032 176.605 264.158 176.571L267.065 175.781C267.278 175.723 267.497 175.849 267.555 176.061C267.612 176.274 267.487 176.493 267.274 176.55L264.367 177.34C264.09 177.416 263.797 177.408 263.524 177.317C262.758 177.064 262.342 176.237 262.596 175.471L265.436 166.897ZM258.976 167.205L259.174 166.433C259.713 166.571 260.13 166.78 260.419 167.069C260.578 167.228 260.887 167.63 261.371 168.305C262.183 169.438 261.923 171.015 260.79 171.828C260.771 171.841 260.771 171.841 260.752 171.854C259.991 172.379 259.489 172.681 259.201 172.777C258.73 172.934 258.132 172.934 257.403 172.79L257.558 172.008C258.163 172.128 258.628 172.128 258.949 172.021C259.139 171.958 259.605 171.677 260.3 171.198C260.313 171.189 260.313 171.189 260.326 171.18C261.101 170.624 261.279 169.545 260.723 168.77C260.269 168.136 259.971 167.748 259.856 167.632C259.68 167.457 259.388 167.311 258.976 167.205ZM283.677 177.844C283.809 177.479 284.331 177.498 284.436 177.872L285.829 182.847C286.157 184.017 285.971 185.272 285.318 186.298C285.224 186.446 285.107 186.578 284.971 186.689C284.265 187.267 283.224 187.163 282.647 186.457L282.548 186.336C281.717 185.321 281.481 183.944 281.925 182.711L283.677 177.844ZM285.061 183.062L284.005 179.288L282.675 182.981C282.326 183.951 282.512 185.033 283.165 185.831L283.264 185.952C283.562 186.317 284.101 186.371 284.466 186.072C284.536 186.015 284.597 185.946 284.646 185.87C285.177 185.035 285.328 184.014 285.061 183.062Z" fill="#575757"/>
<path d="M278.472 171.868C279.499 171.868 280.332 171.035 280.332 170.008C280.332 168.98 279.499 168.148 278.472 168.148C277.445 168.148 276.612 168.98 276.612 170.008C276.612 171.035 277.445 171.868 278.472 171.868Z" fill="#575757"/>
<path fill-rule="evenodd" clip-rule="evenodd" d="M292.555 159.645C274.276 162.163 262.584 163.226 257.48 162.833C253.352 162.516 250.072 160.949 247.638 158.132C247.063 157.465 247.136 156.459 247.802 155.883C248.026 155.69 248.299 155.563 248.591 155.516L262.529 153.267L252.963 149.016L271.298 149.813L262.529 144.499L279.801 147.422L290.694 148.549C297.517 149.254 302.56 155.231 302.108 162.076L301.058 177.979L292.555 159.645Z" fill="#575757"/>
<path d="M84.4979 395.281C85.0849 395.281 85.5608 394.805 85.5608 394.218C85.5608 393.631 85.0849 393.155 84.4979 393.155C83.9109 393.155 83.4351 393.631 83.4351 394.218C83.4351 394.805 83.9109 395.281 84.4979 395.281Z" fill="#575757"/>
<path d="M349.387 422.738C349.583 422.636 349.658 422.395 349.557 422.2C349.455 422.005 349.215 421.929 349.019 422.031L337.277 428.142C337.02 428.276 336.987 428.632 337.216 428.81C340.296 431.208 342.828 432.736 344.828 433.392C346.822 434.046 350.028 434.404 354.461 434.474C354.681 434.478 354.862 434.302 354.866 434.082C354.869 433.862 354.693 433.681 354.473 433.677C350.114 433.608 346.976 433.258 345.076 432.634C343.285 432.047 340.989 430.689 338.199 428.561L349.387 422.738Z" fill="#575757"/>
<path d="M337.461 428.894C341.043 428.894 344.625 428.357 348.204 427.283C348.415 427.22 348.535 426.998 348.472 426.787C348.408 426.576 348.186 426.456 347.975 426.52C344.469 427.572 340.965 428.097 337.461 428.097C337.241 428.097 337.062 428.276 337.062 428.496C337.062 428.716 337.241 428.894 337.461 428.894Z" fill="#575757"/>
<path d="M337.524 428.839C341.501 431.189 345.934 432.003 350.805 431.282C351.023 431.249 351.173 431.047 351.141 430.829C351.109 430.611 350.906 430.461 350.689 430.493C345.994 431.189 341.747 430.408 337.93 428.153C337.74 428.041 337.496 428.104 337.384 428.293C337.272 428.483 337.334 428.727 337.524 428.839Z" fill="#575757"/>
<path d="M339.317 414.182L344.499 409.664C344.665 409.52 344.682 409.268 344.537 409.102C344.393 408.936 344.141 408.919 343.975 409.064L338.794 413.581C338.628 413.725 338.61 413.977 338.755 414.143C338.9 414.309 339.152 414.326 339.317 414.182Z" fill="#575757"/>
<path d="M319.954 428.763L310.933 439.907L310.314 439.405L318.823 428.894H311.687C311.466 428.894 311.288 428.716 311.288 428.496C311.288 428.275 311.466 428.097 311.687 428.097H318.715L310.338 419.473C310.184 419.315 310.188 419.063 310.346 418.91C310.504 418.756 310.756 418.76 310.91 418.918L319.944 428.218C320.103 428.382 320.084 428.618 319.954 428.763Z" fill="#575757"/>
<path d="M167.362 422.182L167.52 422.226L164.332 433.652L163.564 433.437L166.685 422.252H156.773C156.553 422.252 156.375 422.073 156.375 421.853C156.375 421.633 156.553 421.454 156.773 421.454H166.592L163.568 411.876C163.501 411.666 163.618 411.442 163.828 411.376C164.038 411.309 164.261 411.426 164.328 411.636L167.516 421.733C167.572 421.909 167.5 422.087 167.362 422.182Z" fill="#575757"/>
<path d="M193.221 421.511L206.203 421.72L206.19 422.517L193.523 422.313L208.411 425.716C208.626 425.765 208.76 425.979 208.711 426.193C208.662 426.408 208.448 426.542 208.234 426.493L189.633 422.241C189.218 422.146 189.222 421.553 189.639 421.463L208.239 417.477C208.454 417.431 208.666 417.568 208.712 417.784C208.758 417.999 208.621 418.211 208.406 418.257L193.221 421.511Z" fill="#575757"/>
<path d="M28.427 394.882H22.5859C22.3657 394.882 22.1873 394.704 22.1873 394.484C22.1873 394.264 22.3657 394.085 22.5859 394.085H28.3429L8.20457 371.365C8.05856 371.2 8.07374 370.948 8.23847 370.802C8.4032 370.656 8.65511 370.672 8.80112 370.836L29.5271 394.219C29.6531 394.362 29.6613 394.573 29.5466 394.724L8.82059 422.093C8.6877 422.269 8.43771 422.303 8.26222 422.17C8.08674 422.038 8.05221 421.788 8.1851 421.612L28.427 394.882ZM34.7885 418.713C34.615 418.848 34.3645 418.817 34.229 418.644C34.0935 418.47 34.1243 418.22 34.2978 418.084L62.1982 396.295C62.3717 396.16 62.6221 396.191 62.7576 396.364C62.8931 396.538 62.8623 396.788 62.6888 396.924L34.7885 418.713ZM34.732 387.926C34.5381 388.03 34.2964 387.958 34.1921 387.764C34.0879 387.57 34.1605 387.328 34.3544 387.224C55.5505 375.825 71.1888 373.412 81.2634 380.068C81.4471 380.19 81.4976 380.437 81.3763 380.621C81.2549 380.804 81.0077 380.855 80.824 380.733C71.0584 374.281 55.6964 376.651 34.732 387.926Z" fill="#575757"/>
<path d="M52.6121 414.679C59.875 411.844 63.1522 405.821 62.4436 396.61" stroke="#575757" stroke-width="1.03299" stroke-linecap="round" stroke-linejoin="round"/>
<path d="M40.4532 405.071C46.7279 395.833 53.9652 393.162 62.2777 396.972C62.4778 397.064 62.7144 396.976 62.8061 396.776C62.8978 396.576 62.8099 396.339 62.6098 396.248C53.9163 392.263 46.2735 395.084 39.7938 404.623C39.6701 404.805 39.7174 405.053 39.8995 405.177C40.0816 405.301 40.3295 405.253 40.4532 405.071Z" fill="#575757"/>
<path d="M304.389 245.065C304.436 244.85 304.648 244.714 304.863 244.761C305.078 244.809 305.215 245.021 305.167 245.236L302.776 256.131C302.729 256.346 302.516 256.482 302.301 256.435C302.086 256.387 301.95 256.175 301.997 255.96L304.389 245.065ZM265.368 218.172C264.97 218.086 264.941 217.53 265.328 217.403L281.536 212.089C281.781 212.008 282.037 212.178 282.058 212.435L283.386 228.91C283.405 229.142 283.222 229.341 282.989 229.341H274.486C274.16 229.341 273.972 228.97 274.165 228.706L279.647 221.231L265.368 218.172ZM266.977 217.701L280.416 220.581C280.698 220.641 280.824 220.973 280.653 221.206L275.273 228.543H282.557L281.304 213.004L266.977 217.701ZM301.697 228.804C301.794 229.064 301.601 229.341 301.324 229.341H294.946C294.689 229.341 294.498 229.099 294.559 228.848L298.279 213.437C298.344 213.166 298.66 213.044 298.89 213.201L306.33 218.249C306.591 218.426 306.553 218.821 306.264 218.945L299.172 221.985L301.697 228.804ZM295.453 228.543H300.751L298.293 221.906C298.219 221.707 298.314 221.485 298.51 221.401L305.28 218.5L298.919 214.183L295.453 228.543ZM266.116 237.578V242.228C266.116 245.97 269.15 249.004 272.892 249.004C276.634 249.004 279.668 245.97 279.668 242.228V237.578H266.116ZM266.116 236.781H279.668V235.186H266.116V236.781ZM301.471 238.753L301.747 237.454L296.809 236.404L296.533 237.703L301.471 238.753ZM301.305 239.533L296.367 238.483L294.516 247.19C294.226 248.554 295.097 249.894 296.461 250.184C297.824 250.474 299.165 249.604 299.455 248.24L301.305 239.533ZM265.319 234.389H280.465V242.228C280.465 246.41 277.074 249.801 272.892 249.801C268.709 249.801 265.319 246.41 265.319 242.228V234.389ZM296.195 235.458L302.693 236.84L300.234 248.406C299.853 250.2 298.089 251.345 296.295 250.964C294.501 250.583 293.355 248.819 293.737 247.024L296.195 235.458Z" fill="#575757"/>
<path fill-rule="evenodd" clip-rule="evenodd" d="M339.587 234.522L334.804 230.271C336.658 221.684 337.72 216.724 337.993 215.39C338.21 214.325 339.386 212.696 341.52 210.504C342.781 209.208 343.877 207.76 344.781 206.193L347.293 201.839C350.836 201.839 351.987 203.345 350.747 206.356C349.931 208.339 347.348 212.471 343 218.754" fill="white"/>
<path d="M338.117 215.47C338.315 214.504 339.458 212.92 341.54 210.782C342.824 209.462 343.94 207.987 344.86 206.392L347.256 202.239C350.342 202.297 351.213 203.533 350.113 206.204C349.311 208.15 346.737 212.27 342.406 218.527L343.062 218.981C347.428 212.673 350.018 208.527 350.85 206.508C352.203 203.221 350.841 201.44 347.027 201.44C346.885 201.44 346.753 201.516 346.682 201.64L344.17 205.994C343.282 207.532 342.207 208.953 340.968 210.226C338.783 212.471 337.574 214.145 337.336 215.311C337.065 216.642 336.002 221.602 334.149 230.186C334.118 230.327 334.166 230.473 334.273 230.568L339.056 234.82L339.586 234.224L334.977 230.127C336.801 221.678 337.847 216.794 338.117 215.47Z" fill="#575757"/>
<path fill-rule="evenodd" clip-rule="evenodd" d="M188.659 230.271L188.439 230.245C187.236 230.104 186.28 229.166 186.116 227.965L185.996 227.082C185.804 225.673 186.79 224.375 188.199 224.183C188.315 224.167 188.431 224.159 188.547 224.159H188.786H199.149" fill="white"/>
<path d="M189.012 230.147L188.427 230.017C187.504 229.812 186.806 229.054 186.679 228.117L186.53 227.028C186.368 225.837 187.202 224.74 188.392 224.577C188.49 224.564 188.588 224.557 188.687 224.557H199.288V223.76H188.687C188.552 223.76 188.418 223.769 188.285 223.788C186.658 224.009 185.518 225.508 185.74 227.136L185.889 228.225C186.062 229.492 187.005 230.518 188.254 230.795L188.839 230.925L189.012 230.147Z" fill="#575757"/>
<path d="M283.385 228.899C283.361 228.68 283.165 228.522 282.946 228.546C282.727 228.57 282.569 228.766 282.593 228.985L286.313 262.997C286.362 263.441 286.992 263.482 287.097 263.047L299.054 213.624C299.106 213.41 298.974 213.195 298.76 213.143C298.546 213.091 298.331 213.223 298.279 213.437L286.858 260.645L283.385 228.899Z" fill="#575757"/>
<path d="M400.284 312.718L411.82 321.915C411.992 322.053 412.02 322.303 411.883 322.475C411.746 322.648 411.495 322.676 411.323 322.539L400.005 313.515L403.954 318.664C404.151 318.921 404.312 319.203 404.433 319.502C405.178 321.341 404.291 323.435 402.452 324.18C402.091 324.326 401.708 324.408 401.319 324.422C399.478 324.487 397.932 323.048 397.867 321.207L397.517 311.371L397.109 311.172L397.508 311.105L397.476 310.217L398.083 311.009L407.608 309.418C407.927 309.365 408.252 309.355 408.573 309.388C410.546 309.594 411.979 311.36 411.773 313.333C411.733 313.721 411.625 314.098 411.454 314.448C410.648 316.104 408.652 316.793 406.995 315.986L400.284 312.718ZM403.322 319.15L398.361 312.682L398.663 321.179C398.713 322.58 399.889 323.675 401.29 323.625C401.586 323.615 401.878 323.552 402.153 323.441C403.584 322.862 404.274 321.232 403.694 319.801C403.6 319.568 403.475 319.349 403.322 319.15ZM399.7 311.547L407.344 315.27C408.605 315.883 410.124 315.359 410.738 314.099C410.867 313.832 410.95 313.545 410.98 313.251C411.14 311.715 410.026 310.341 408.49 310.181C408.24 310.155 407.988 310.163 407.74 310.204L399.7 311.547Z" fill="#575757"/>
<path fill-rule="evenodd" clip-rule="evenodd" d="M309.486 334.635L307.169 330.18L315.938 326.46L332.678 324.069H353.935V331.406C353.935 332.514 353.084 333.437 351.979 333.525L313.082 336.627C311.592 336.746 310.175 335.961 309.486 334.635ZM356.061 318.223L364.564 313.44L377.85 308.392L390.604 304.14L395.919 303.343L397.779 311.58L362.489 323.589C360.772 324.173 358.884 323.434 358.02 321.839L356.061 318.223Z" fill="white"/>
<path d="M309.398 334.553L306.883 329.716L316.048 325.828L316.148 325.8L332.888 323.408L332.944 323.404H354.6V331.14C354.6 332.456 353.589 333.552 352.277 333.656L313.38 336.759C311.73 336.89 310.162 336.022 309.398 334.553ZM310.105 334.185C310.721 335.37 311.986 336.07 313.316 335.964L352.213 332.862C353.111 332.79 353.803 332.041 353.803 331.14V324.202H332.972L316.312 326.582L307.988 330.113L310.105 334.185ZM355.79 317.802L364.635 312.827L364.689 312.802L377.99 307.748L390.745 303.496L390.811 303.48L396.492 302.628L398.513 311.576L362.883 323.7C360.982 324.347 358.892 323.528 357.935 321.763L355.79 317.802ZM358.636 321.383C359.408 322.807 361.093 323.467 362.627 322.945L397.577 311.052L395.878 303.526L390.964 304.263L378.258 308.498L365 313.536L356.865 318.112L358.636 321.383Z" fill="#575757"/>
<path d="M261.867 274.158C263.437 288.111 258.462 294.973 246.852 294.973C246.632 294.973 246.453 295.151 246.453 295.371C246.453 295.591 246.632 295.77 246.852 295.77C258.979 295.77 264.278 288.46 262.659 274.069C262.635 273.851 262.438 273.693 262.219 273.718C262 273.742 261.843 273.94 261.867 274.158Z" fill="#575757"/>
<path d="M346.935 337.038L347.329 343.514C347.349 343.837 347.325 344.161 347.258 344.477C346.847 346.418 344.941 347.658 343 347.247C342.619 347.166 342.255 347.02 341.925 346.814C340.362 345.838 339.886 343.781 340.861 342.218L346.022 333.947C346.081 333.853 346.163 333.797 346.252 333.773C346.326 333.571 346.56 333.436 346.795 333.543L355.346 337.443C355.64 337.577 355.914 337.75 356.162 337.957C357.683 339.231 357.883 341.497 356.609 343.018C356.359 343.316 356.058 343.568 355.721 343.763C354.127 344.685 352.086 344.14 351.164 342.545L347.522 336.246L352.032 350.608C352.098 350.818 351.981 351.042 351.771 351.107C351.561 351.173 351.338 351.057 351.272 350.847L346.935 337.038ZM346.534 343.563L346.038 335.427L341.537 342.64C340.795 343.829 341.158 345.395 342.347 346.137C342.598 346.294 342.875 346.406 343.165 346.467C344.675 346.787 346.159 345.822 346.478 344.312C346.53 344.066 346.549 343.814 346.534 343.563ZM347.599 334.786L351.854 342.146C352.556 343.36 354.109 343.775 355.322 343.073C355.579 342.925 355.807 342.733 355.998 342.506C356.989 341.323 356.833 339.56 355.65 338.568C355.457 338.407 355.244 338.272 355.015 338.168L347.599 334.786Z" fill="#575757"/>
</svg>
