<svg width="48" height="48" viewBox="0 0 48 48" fill="none" xmlns="http://www.w3.org/2000/svg">
<path d="M22 38H14C13.4333 38 12.9587 38.192 12.576 38.576C12.1933 38.96 12.0013 39.4347 12 40C11.9987 40.5653 12.1907 41.0407 12.576 41.426C12.9613 41.8113 13.436 42.0027 14 42H34C34.5667 42 35.042 41.808 35.426 41.424C35.81 41.04 36.0013 40.5653 36 40C35.9987 39.4347 35.8067 38.96 35.424 38.576C35.0413 38.192 34.5667 38 34 38H26V23.6L27.8 25.4C28.1667 25.7667 28.6333 25.95 29.2 25.95C29.7667 25.95 30.2333 25.7667 30.6 25.4C30.9667 25.0333 31.15 24.5667 31.15 24C31.15 23.4333 30.9667 22.9667 30.6 22.6L25.4 17.4C25 17 24.5333 16.8 24 16.8C23.4667 16.8 23 17 22.6 17.4L17.4 22.6C17.0333 22.9667 16.85 23.4333 16.85 24C16.85 24.5667 17.0333 25.0333 17.4 25.4C17.7667 25.7667 18.2333 25.95 18.8 25.95C19.3667 25.95 19.8333 25.7667 20.2 25.4L22 23.6V38ZM8 32C6.9 32 5.95867 31.6087 5.176 30.826C4.39333 30.0433 4.00133 29.1013 4 28V10C4 8.9 4.392 7.95867 5.176 7.176C5.96 6.39333 6.90133 6.00133 8 6H40C41.1 6 42.042 6.392 42.826 7.176C43.61 7.96 44.0013 8.90133 44 10V28C44 29.1 43.6087 30.042 42.826 30.826C42.0433 31.61 41.1013 32.0013 40 32H32C31.4333 32 30.9587 31.808 30.576 31.424C30.1933 31.04 30.0013 30.5653 30 30C29.9987 29.4347 30.1907 28.96 30.576 28.576C30.9613 28.192 31.436 28 32 28H40V10H8V28H16C16.5667 28 17.042 28.192 17.426 28.576C17.81 28.96 18.0013 29.4347 18 30C17.9987 30.5653 17.8067 31.0407 17.424 31.426C17.0413 31.8113 16.5667 32.0027 16 32H8Z" fill="#95EF4B"/>
</svg>
