<svg width="8" height="8" viewBox="0 0 8 8" fill="none" xmlns="http://www.w3.org/2000/svg">
<path d="M2.90591 0.5C2.90591 0.223437 3.12935 0 3.40591 0H3.90591C4.18247 0 4.40591 0.223437 4.40591 0.5V2.70156L6.31216 1.60156C6.55122 1.46406 6.85747 1.54531 6.99497 1.78437L7.24497 2.21719C7.38247 2.45625 7.30122 2.7625 7.06216 2.9L5.15591 4L7.06216 5.1C7.30122 5.2375 7.38404 5.54375 7.24497 5.78281L6.99497 6.21562C6.85747 6.45469 6.55122 6.5375 6.31216 6.39844L4.40591 5.29844V7.5C4.40591 7.77656 4.18247 8 3.90591 8H3.40591C3.12935 8 2.90591 7.77656 2.90591 7.5V5.29844L0.999662 6.4C0.7606 6.5375 0.45435 6.45625 0.316849 6.21719L0.0668495 5.78438C-0.0706505 5.54531 0.0105995 5.23906 0.249662 5.10156L2.15591 4L0.249662 2.9C0.0105995 2.7625 -0.0706505 2.45625 0.0668495 2.21719L0.316849 1.78437C0.45435 1.54375 0.7606 1.4625 0.999662 1.6L2.90591 2.7V0.5Z" fill="#F95755"/>
</svg>
