<svg width="34" height="34" viewBox="0 0 34 34" fill="none" xmlns="http://www.w3.org/2000/svg">
<path d="M16.9999 5.66683C23.2488 5.66683 28.3333 10.7512 28.3333 17.0002C28.3333 23.2491 23.2488 28.3335 16.9999 28.3335C10.751 28.3335 5.66659 23.2491 5.66659 17.0002C5.66659 10.7512 10.751 5.66683 16.9999 5.66683ZM16.9999 2.8335C9.17567 2.8335 2.83325 9.17591 2.83325 17.0002C2.83325 24.8244 9.17567 31.1668 16.9999 31.1668C24.8242 31.1668 31.1666 24.8244 31.1666 17.0002C31.1666 9.17591 24.8242 2.8335 16.9999 2.8335ZM18.4166 21.2502H15.5833V24.0835H18.4166V21.2502ZM15.5833 18.4168H18.4166L19.1249 9.91683H14.8749L15.5833 18.4168Z" fill="currentColor"/>
</svg>
