<svg  viewBox="0 0 40 40" fill="none" xmlns="http://www.w3.org/2000/svg">
<rect width="40" height="40" rx="20" fill="#737373"/>
<path fill-rule="evenodd" clip-rule="evenodd" d="M12.8889 15.1111C12.8889 13.2251 13.6381 11.4164 14.9717 10.0828C16.3053 8.7492 18.114 8 20 8C21.886 8 23.6947 8.7492 25.0283 10.0828C26.3619 11.4164 27.1111 13.2251 27.1111 15.1111C27.1111 16.9971 26.3619 18.8058 25.0283 20.1394C23.6947 21.473 21.886 22.2222 20 22.2222C18.114 22.2222 16.3053 21.473 14.9717 20.1394C13.6381 18.8058 12.8889 16.9971 12.8889 15.1111ZM12.8889 25.7778C10.5314 25.7778 8.27049 26.7143 6.6035 28.3813C4.93651 30.0483 4 32.3092 4 34.6667C4 36.0812 4.5619 37.4377 5.5621 38.4379C6.56229 39.4381 7.91885 40 9.33333 40H30.6667C32.0812 40 33.4377 39.4381 34.4379 38.4379C35.4381 37.4377 36 36.0812 36 34.6667C36 32.3092 35.0635 30.0483 33.3965 28.3813C31.7295 26.7143 29.4686 25.7778 27.1111 25.7778H12.8889Z" fill="white"/>
</svg>
