<svg width="18" height="18" viewBox="0 0 18 18" fill="none" xmlns="http://www.w3.org/2000/svg">
<path fill-rule="evenodd" clip-rule="evenodd" d="M8.32 1.02898C9.70071 0.911141 11.0884 1.15399 12.347 1.73374C13.6056 2.31349 14.6921 3.21025 15.5 4.33618V2.75008C15.5 2.55116 15.579 2.36038 15.7197 2.21972C15.8603 2.07906 16.0511 2.00004 16.25 2.00004C16.4489 2.00004 16.6397 2.07906 16.7803 2.21972C16.921 2.36038 17 2.55116 17 2.75008V7.00035H12.75C12.5511 7.00035 12.3603 6.92133 12.2197 6.78066C12.079 6.64 12 6.44923 12 6.2503C12 6.05138 12.079 5.8606 12.2197 5.71994C12.3603 5.57928 12.5511 5.50026 12.75 5.50026H14.477C13.7931 4.43009 12.8107 3.58372 11.6512 3.06569C10.4917 2.54766 9.20584 2.38067 7.95248 2.58534C6.69912 2.79001 5.53316 3.35737 4.59864 4.21735C3.66412 5.07733 3.00198 6.19225 2.694 7.42437C2.67128 7.52116 2.62955 7.61247 2.57123 7.69298C2.51291 7.7735 2.43917 7.84161 2.35429 7.89337C2.26942 7.94513 2.1751 7.97949 2.07682 7.99447C1.97854 8.00944 1.87827 8.00473 1.78182 7.9806C1.68538 7.95647 1.5947 7.91341 1.51505 7.85392C1.4354 7.79443 1.36837 7.7197 1.31786 7.63407C1.26735 7.54844 1.23437 7.45362 1.22083 7.35513C1.20729 7.25664 1.21347 7.15644 1.239 7.06035C1.64354 5.44268 2.5434 3.99184 3.81279 2.91064C5.08218 1.82944 6.65766 1.17192 8.319 1.02998L8.32 1.02898ZM4.92 15.8819C5.99199 16.5173 7.19758 16.8935 8.44068 16.9805C9.68378 17.0675 10.93 16.8628 12.08 16.3829C13.23 15.9029 14.252 15.1609 15.0646 14.2161C15.8771 13.2712 16.4577 12.1496 16.76 10.9406C16.805 10.7488 16.7728 10.5469 16.6702 10.3787C16.5676 10.2105 16.403 10.0894 16.2119 10.0416C16.0207 9.99376 15.8185 10.0231 15.6488 10.1232C15.4791 10.2233 15.3556 10.3861 15.305 10.5766C14.9969 11.8084 14.3347 12.9231 13.4002 13.7828C12.4658 14.6426 11.3 15.2098 10.0469 15.4145C8.79373 15.6191 7.50809 15.4522 6.34871 14.9344C5.18933 14.4166 4.20699 13.5705 3.523 12.5007H5.25C5.44891 12.5007 5.63968 12.4217 5.78033 12.281C5.92098 12.1403 6 11.9496 6 11.7506C6 11.5517 5.92098 11.3609 5.78033 11.2203C5.63968 11.0796 5.44891 11.0006 5.25 11.0006H1V15.2509C1 15.4498 1.07902 15.6406 1.21967 15.7812C1.36032 15.9219 1.55109 16.0009 1.75 16.0009C1.94891 16.0009 2.13968 15.9219 2.28033 15.7812C2.42098 15.6406 2.5 15.4498 2.5 15.2509V13.6648C3.14478 14.5631 3.96879 15.3181 4.92 15.8819Z" fill="#95EF4B"/>
</svg>
