<svg width="75" height="75" viewBox="0 0 75 75" fill="none" xmlns="http://www.w3.org/2000/svg">
<circle cx="37.5" cy="37.5" r="37.5" fill="white"/>
<path d="M20.4372 51.3381C19.6798 50.9061 19.0777 50.3189 18.6312 49.5764C18.1846 48.8319 17.9613 47.9978 17.9613 47.0742V35.4978L13.2632 32.8612C12.8343 32.6025 12.5156 32.2959 12.307 31.9416C12.0985 31.5873 11.9962 31.1951 12.0001 30.7651C12.004 30.3352 12.1083 29.943 12.3129 29.5887C12.5175 29.2344 12.8353 28.9278 13.2661 28.669L33.3924 17.5614C33.7504 17.3604 34.1193 17.217 34.499 17.1314C34.8787 17.0458 35.2683 17.0021 35.6676 17.0001C36.067 16.9981 36.4576 17.0419 36.8392 17.1314C37.2209 17.221 37.5908 17.3634 37.9488 17.5584L60.734 30.0605C61.1511 30.3093 61.4659 30.6208 61.6783 30.995C61.8928 31.3713 62 31.7774 62 32.2133V48.3372C62 48.7592 61.8583 49.1136 61.575 49.4002C61.2917 49.6869 60.9416 49.8302 60.5245 49.8302C60.1074 49.8302 59.7562 49.6869 59.4709 49.4002C59.1857 49.1136 59.045 48.7592 59.0489 48.3372V32.4432L53.374 35.4978V47.0742C53.374 47.9978 53.1507 48.8319 52.7041 49.5764C52.2576 50.3209 51.6565 50.9081 50.901 51.3381L37.9606 58.4266C37.5947 58.6357 37.2209 58.784 36.8392 58.8715C36.4576 58.9591 36.067 59.0019 35.6676 58.9999C35.2683 58.9979 34.8777 58.9551 34.4961 58.8715C34.1144 58.7879 33.7406 58.6386 33.3747 58.4237L20.4372 51.3381ZM34.986 41.4696C35.2516 41.6209 35.4876 41.6966 35.6942 41.6966C35.9028 41.6966 36.1398 41.6209 36.4054 41.4696L55.8234 30.7651L36.4054 20.1203C36.1418 19.9671 35.9057 19.8904 35.6972 19.8904C35.4886 19.8904 35.2525 19.9671 34.9889 20.1203L15.5119 30.7651L34.986 41.4696ZM34.9299 55.8976C35.1955 56.0508 35.4414 56.1275 35.6676 56.1275C35.8939 56.1275 36.1398 56.0508 36.4054 55.8976L49.5731 48.6985C49.876 48.5074 50.0925 48.2875 50.2223 48.0386C50.3521 47.7898 50.419 47.4733 50.423 47.0891V37.1401L37.9783 44.0136C37.6104 44.2226 37.2366 44.3709 36.8569 44.4585C36.4812 44.5441 36.0847 44.5869 35.6676 44.5869C35.2506 44.5869 34.8532 44.5441 34.4754 44.4585C34.0977 44.3729 33.7249 44.2236 33.357 44.0106L20.9123 37.143V47.0921C20.9123 47.3987 20.9782 47.6963 21.11 47.9849C21.2419 48.2715 21.4593 48.5104 21.7622 48.7015L34.9299 55.8976Z" fill="#737373"/>
</svg>
