<svg width="18" height="18" viewBox="0 0 18 18" fill="none" xmlns="http://www.w3.org/2000/svg">
<path d="M6.76562 1.90332C8.30431 1.85302 9.80447 2.39023 10.9619 3.40527C12.1192 4.4203 12.8471 5.83722 12.998 7.36914C13.146 8.87209 12.7269 10.3744 11.8262 11.584L14.835 14.5938L14.8379 14.5957L14.8428 14.6006C14.9243 14.6821 14.9891 14.7792 15.0332 14.8857C15.0773 14.9922 15.0996 15.1064 15.0996 15.2217C15.0996 15.3369 15.0773 15.4511 15.0332 15.5576C14.9891 15.6642 14.9243 15.7612 14.8428 15.8428C14.7612 15.9243 14.6642 15.9891 14.5576 16.0332C14.4511 16.0773 14.3369 16.0996 14.2217 16.0996C14.1064 16.0996 13.9922 16.0773 13.8857 16.0332C13.7792 15.9891 13.6821 15.9243 13.6006 15.8428L10.583 12.8252C9.37348 13.7256 7.87187 14.146 6.36914 13.998C4.83732 13.8471 3.42029 13.119 2.40527 11.9619C1.39024 10.8046 0.853084 9.30415 0.90332 7.76562C0.95368 6.22696 1.58716 4.76437 2.67578 3.67578C3.76443 2.58719 5.22687 1.95368 6.76562 1.90332ZM7.80859 3.74902C6.97404 3.58303 6.1084 3.66853 5.32227 3.99414C4.53626 4.31977 3.86428 4.87173 3.3916 5.5791C2.91904 6.28647 2.667 7.11806 2.66699 7.96875L2.67188 8.18164C2.72556 9.24472 3.17245 10.2535 3.92871 11.0098C4.73517 11.816 5.82838 12.2692 6.96875 12.2705C7.81966 12.2705 8.65187 12.0186 9.35938 11.5459C10.0668 11.0732 10.6177 10.4012 10.9434 9.61523C11.2689 8.82924 11.3544 7.96429 11.1885 7.12988C11.0225 6.29537 10.6124 5.52841 10.0107 4.92676C9.40913 4.32527 8.64299 3.91501 7.80859 3.74902Z" fill="#161616" stroke="#161616" stroke-width="0.2"/>
</svg>
