<svg width="28" height="28" viewBox="0 0 28 28" fill="none" xmlns="http://www.w3.org/2000/svg">
<path d="M23.3331 23.3331L18.6081 18.6081M18.6081 18.6081C19.3665 17.8497 19.9681 16.9494 20.3785 15.9585C20.7889 14.9676 21.0002 13.9056 21.0002 12.8331C21.0002 11.7606 20.7889 10.6986 20.3785 9.70769C19.9681 8.71682 19.3665 7.81648 18.6081 7.0581C17.8497 6.29971 16.9494 5.69813 15.9585 5.2877C14.9676 4.87726 13.9056 4.66602 12.8331 4.66602C11.7606 4.66602 10.6986 4.87726 9.70769 5.2877C8.71682 5.69813 7.81648 6.29972 7.0581 7.0581C5.52647 8.58972 4.66602 10.6671 4.66602 12.8331C4.66602 14.9991 5.52647 17.0765 7.0581 18.6081C8.58972 20.1397 10.6671 21.0002 12.8331 21.0002C14.9991 21.0002 17.0765 20.1397 18.6081 18.6081Z" stroke="currentColor" stroke-width="1.5" stroke-linecap="round" stroke-linejoin="round"/>
</svg>
