<svg width="20" height="20" viewBox="0 0 20 20" fill="none" xmlns="http://www.w3.org/2000/svg">
<path d="M15.1923 8.61539V1M11.3846 4.80769H19M7.23077 1H2.38462C2.01739 1 1.66521 1.14588 1.40554 1.40554C1.14588 1.66521 1 2.01739 1 2.38462V7.23077C1 7.59799 1.14588 7.95017 1.40554 8.20984C1.66521 8.46951 2.01739 8.61539 2.38462 8.61539H7.23077C7.59799 8.61539 7.95017 8.46951 8.20984 8.20984C8.46951 7.95017 8.61539 7.59799 8.61539 7.23077V2.38462C8.61539 2.01739 8.46951 1.66521 8.20984 1.40554C7.95017 1.14588 7.59799 1 7.23077 1ZM17.6154 11.3846H12.7692C12.402 11.3846 12.0498 11.5305 11.7902 11.7902C11.5305 12.0498 11.3846 12.402 11.3846 12.7692V17.6154C11.3846 17.9826 11.5305 18.3348 11.7902 18.5945C12.0498 18.8541 12.402 19 12.7692 19H17.6154C17.9826 19 18.3348 18.8541 18.5945 18.5945C18.8541 18.3348 19 17.9826 19 17.6154V12.7692C19 12.402 18.8541 12.0498 18.5945 11.7902C18.3348 11.5305 17.9826 11.3846 17.6154 11.3846ZM7.23077 11.3846H2.38462C2.01739 11.3846 1.66521 11.5305 1.40554 11.7902C1.14588 12.0498 1 12.402 1 12.7692V17.6154C1 17.9826 1.14588 18.3348 1.40554 18.5945C1.66521 18.8541 2.01739 19 2.38462 19H7.23077C7.59799 19 7.95017 18.8541 8.20984 18.5945C8.46951 18.3348 8.61539 17.9826 8.61539 17.6154V12.7692C8.61539 12.402 8.46951 12.0498 8.20984 11.7902C7.95017 11.5305 7.59799 11.3846 7.23077 11.3846Z" stroke="#95EF4B" stroke-width="2" stroke-linecap="round" stroke-linejoin="round"/>
</svg>
