<svg width="18" height="18" viewBox="0 0 18 18" fill="none" xmlns="http://www.w3.org/2000/svg">
<path d="M14.257 8.85347L15.1609 9.65838C15.3279 9.79767 15.4394 9.99213 15.4753 10.2065C15.5113 10.4209 15.4693 10.6411 15.3569 10.8273L14.267 12.6891C14.1825 12.8316 14.0617 12.9492 13.9171 13.03C13.7707 13.111 13.6064 13.154 13.4391 13.155C13.3354 13.1556 13.2321 13.1401 13.1332 13.109L11.9763 12.7271C11.7736 12.857 11.563 12.9734 11.3443 13.076L11.1014 14.2489C11.0564 14.4646 10.9363 14.6574 10.7624 14.7928C10.5863 14.9307 10.368 15.0034 10.1445 14.9988H7.88772C7.66415 15.0034 7.44586 14.9307 7.26978 14.7928C7.09628 14.6572 6.97652 14.4645 6.93182 14.2489L6.68785 13.076C6.47207 12.972 6.26272 12.8551 6.06091 12.7261L4.90004 13.109C4.80105 13.1401 4.69783 13.1556 4.59407 13.155C4.42715 13.1538 4.26318 13.1108 4.11712 13.03C3.97258 12.9495 3.85186 12.8322 3.76716 12.6901L2.63828 10.8273C2.52092 10.6395 2.47608 10.4153 2.51216 10.1968C2.54824 9.97832 2.66276 9.78048 2.83426 9.64038L3.73716 8.49951V8.14555L2.83326 7.34063C2.66634 7.20134 2.55481 7.00689 2.51886 6.79248C2.48291 6.57807 2.52492 6.35787 2.63728 6.17176L3.76616 4.30996C3.85072 4.16744 3.97145 4.04981 4.11612 3.969C4.26218 3.88817 4.42615 3.84521 4.59307 3.84401C4.69589 3.83752 4.7991 3.84697 4.89904 3.87201L6.03692 4.27196C6.24023 4.14198 6.45087 4.02566 6.66885 3.923L6.91282 2.75013C6.95752 2.53452 7.07728 2.34177 7.25078 2.20619C7.42686 2.06835 7.64515 1.99558 7.86872 2.00021H10.1065C10.33 1.99558 10.5483 2.06835 10.7244 2.20619C10.8994 2.34317 11.0194 2.53615 11.0624 2.75013L11.3063 3.923C11.523 4.02632 11.732 4.14298 11.9333 4.27296L13.0952 3.891C13.2241 3.84906 13.3604 3.83433 13.4953 3.84775C13.6302 3.86118 13.7609 3.90246 13.8791 3.969C14.0241 4.05099 14.144 4.16897 14.229 4.30896L15.3569 6.17176C15.4758 6.35796 15.523 6.58108 15.4895 6.79947C15.456 7.01787 15.3442 7.21662 15.1749 7.35863L14.257 8.14055V8.85347Z" stroke="white" stroke-width="0.8"/>
<path d="M11.4995 8.49973C11.4995 9.1627 11.2361 9.79852 10.7673 10.2673C10.2985 10.7361 9.6627 10.9995 8.99973 10.9995C8.33676 10.9995 7.70094 10.7361 7.23215 10.2673C6.76336 9.79852 6.5 9.1627 6.5 8.49973C6.5 7.83676 6.76336 7.20094 7.23215 6.73215C7.70094 6.26336 8.33676 6 8.99973 6C9.6627 6 10.2985 6.26336 10.7673 6.73215C11.2361 7.20094 11.4995 7.83676 11.4995 8.49973Z" stroke="white" stroke-width="0.8"/>
</svg>
