<svg width="20" height="20" viewBox="0 0 20 20" fill="none" xmlns="http://www.w3.org/2000/svg">
<path d="M2.5 14.1667C2.5 14.9417 2.5 15.3292 2.585 15.6467C2.69847 16.0706 2.92155 16.4572 3.23182 16.7677C3.54208 17.0781 3.92859 17.3013 4.3525 17.415C4.67083 17.5 5.05833 17.5 5.83333 17.5H14.1667C14.9417 17.5 15.3292 17.5 15.6467 17.415C16.0707 17.3015 16.4574 17.0783 16.7678 16.7678C17.0783 16.4574 17.3015 16.0707 17.415 15.6467C17.5 15.33 17.5 14.9417 17.5 14.1667M13.75 6.25C13.75 6.25 10.9883 2.5 10 2.5C9.01167 2.5 6.25 6.25 6.25 6.25M10 3.33333V13.3333" stroke="#D2D2D2" stroke-width="1.5" stroke-linecap="square" stroke-linejoin="round"/>
</svg>
