<svg width="16" height="20" viewBox="0 0 16 20" fill="none" xmlns="http://www.w3.org/2000/svg">
<path d="M11.5971 4.59381C11.7832 4.59381 12.1004 4.62239 12.5488 4.67956C12.9971 4.73673 13.4877 4.90006 14.0206 5.16957C14.562 5.4309 15.0526 5.86783 15.4925 6.48034C15.4671 6.50484 15.3444 6.59467 15.1245 6.74984C14.9046 6.89684 14.6593 7.11734 14.3886 7.41135C14.1179 7.69718 13.881 8.06469 13.678 8.51386C13.475 8.95487 13.3735 9.48162 13.3735 10.0941C13.3735 10.7965 13.5004 11.3926 13.7542 11.8827C14.0164 12.3727 14.3167 12.7688 14.655 13.0709C15.0019 13.3649 15.3064 13.5813 15.5686 13.7202C15.8393 13.859 15.9831 13.9325 16 13.9407C15.9915 13.9734 15.8816 14.2633 15.6701 14.8104C15.4671 15.3576 15.1287 15.966 14.655 16.6357C14.2406 17.2156 13.7922 17.7505 13.3101 18.2405C12.8364 18.7305 12.2654 18.9755 11.5971 18.9755C11.1488 18.9755 10.7809 18.9142 10.4933 18.7917C10.2057 18.6611 9.9096 18.5345 9.60508 18.412C9.30056 18.2813 8.8903 18.216 8.37431 18.216C7.87523 18.216 7.45652 18.2813 7.11816 18.412C6.78826 18.5427 6.47106 18.6733 6.16653 18.804C5.87047 18.9347 5.51943 19 5.1134 19C4.4959 19 3.95453 18.7632 3.48929 18.2895C3.02406 17.8158 2.54613 17.2482 2.05551 16.5867C1.48877 15.8027 1.00238 14.8472 0.596352 13.7202C0.198784 12.585 0 11.4417 0 10.2901C0 9.05695 0.241079 8.02386 0.723236 7.19084C1.20539 6.34967 1.82289 5.71674 2.57573 5.29207C3.33703 4.85923 4.12371 4.64281 4.93577 4.64281C5.36717 4.64281 5.7732 4.71223 6.15385 4.85106C6.5345 4.98173 6.88977 5.11648 7.21967 5.25532C7.55802 5.39415 7.86254 5.46357 8.13323 5.46357C8.39545 5.46357 8.69997 5.39007 9.04679 5.24307C9.3936 5.09607 9.78271 4.95315 10.2141 4.81431C10.6455 4.66731 11.1065 4.59381 11.5971 4.59381ZM10.8993 3.03804C10.5694 3.42188 10.1549 3.74447 9.65583 4.0058C9.15675 4.25897 8.68306 4.38556 8.23473 4.38556C8.14169 4.38556 8.05287 4.37739 7.96828 4.36106C7.95982 4.33656 7.95136 4.29164 7.9429 4.22631C7.93444 4.16097 7.93021 4.09155 7.93021 4.01805C7.93021 3.52805 8.04018 3.05437 8.26011 2.59703C8.48004 2.13153 8.72958 1.74769 9.00872 1.44552C9.364 1.03718 9.81232 0.698259 10.3537 0.428756C10.8951 0.159252 11.411 0.0163335 11.9017 0C11.927 0.106168 11.9397 0.232753 11.9397 0.379755C11.9397 0.869761 11.8425 1.34752 11.6479 1.81302C11.4533 2.27036 11.2038 2.6787 10.8993 3.03804Z" fill="black"/>
</svg>
