<svg width="22" height="22" viewBox="0 0 22 22" fill="none" xmlns="http://www.w3.org/2000/svg">
<path d="M14.6667 6.41667C14.6667 6.17355 14.7632 5.94039 14.9351 5.76849C15.107 5.59658 15.3402 5.5 15.5833 5.5C15.8264 5.5 16.0596 5.59658 16.2315 5.76849C16.4034 5.94039 16.5 6.17355 16.5 6.41667C16.5 6.65978 16.4034 6.89294 16.2315 7.06485C16.0596 7.23676 15.8264 7.33333 15.5833 7.33333C15.3402 7.33333 15.107 7.23676 14.9351 7.06485C14.7632 6.89294 14.6667 6.65978 14.6667 6.41667Z" fill="white"/>
<path fill-rule="evenodd" clip-rule="evenodd" d="M11 6.64581C9.84521 6.64581 8.73771 7.10455 7.92115 7.92112C7.10458 8.73768 6.64584 9.84518 6.64584 11C6.64584 12.1548 7.10458 13.2623 7.92115 14.0788C8.73771 14.8954 9.84521 15.3541 11 15.3541C12.1548 15.3541 13.2623 14.8954 14.0789 14.0788C14.8954 13.2623 15.3542 12.1548 15.3542 11C15.3542 9.84518 14.8954 8.73768 14.0789 7.92112C13.2623 7.10455 12.1548 6.64581 11 6.64581ZM8.02084 11C8.02084 10.2099 8.33472 9.45209 8.89342 8.89339C9.45212 8.33469 10.2099 8.02081 11 8.02081C11.7901 8.02081 12.5479 8.33469 13.1066 8.89339C13.6653 9.45209 13.9792 10.2099 13.9792 11C13.9792 11.7901 13.6653 12.5479 13.1066 13.1066C12.5479 13.6653 11.7901 13.9791 11 13.9791C10.2099 13.9791 9.45212 13.6653 8.89342 13.1066C8.33472 12.5479 8.02084 11.7901 8.02084 11Z" fill="white"/>
<path fill-rule="evenodd" clip-rule="evenodd" d="M15.8198 2.5969C12.6164 2.24162 9.38357 2.24162 6.18017 2.5969C4.33584 2.80315 2.84625 4.25607 2.62992 6.10957C2.25052 9.35881 2.25052 12.6412 2.62992 15.8904C2.84625 17.7439 4.33492 19.1968 6.18017 19.4031C9.38361 19.7576 12.6164 19.7576 15.8198 19.4031C17.6642 19.1968 19.1538 17.7439 19.3701 15.8904C19.7495 12.6412 19.7495 9.35881 19.3701 6.10957C19.1538 4.25607 17.6651 2.80315 15.8198 2.5969ZM6.33234 3.96274C9.4346 3.61872 12.5654 3.61872 15.6677 3.96274C16.8868 4.10024 17.8631 5.06182 18.0052 6.26999C18.3729 9.4126 18.3729 12.5874 18.0052 15.73C17.9317 16.3213 17.661 16.8705 17.2369 17.289C16.8127 17.7075 16.2599 17.9708 15.6677 18.0363C12.5654 18.3803 9.4346 18.3803 6.33234 18.0363C5.74011 17.9708 5.18728 17.7075 4.76314 17.289C4.339 16.8705 4.06833 16.3213 3.99484 15.73C3.62712 12.5874 3.62712 9.4126 3.99484 6.26999C4.06833 5.6787 4.339 5.12945 4.76314 4.71097C5.18728 4.29248 5.74011 4.02829 6.33234 3.96274Z" fill="white"/>
</svg>
