<svg width="22" height="22" viewBox="0 0 22 22" fill="none" xmlns="http://www.w3.org/2000/svg">
<path d="M11 2.75C16.3167 2.75 20.6259 6.10867 20.6259 10.2529C20.6259 14.3963 16.3167 17.7549 11.0009 17.7549C10.4716 17.754 9.94294 17.7203 9.41783 17.6541L5.37717 20.2968C4.91792 20.5398 4.75567 20.5132 4.9445 19.9183L5.76217 16.5468C3.12217 15.2084 1.37592 12.8893 1.37592 10.2529C1.37592 6.10958 5.68425 2.75 11.0009 2.75M16.4166 10.1383L17.7641 8.833C17.8418 8.75225 17.8852 8.64447 17.8851 8.53237C17.8849 8.42028 17.8413 8.3126 17.7634 8.23204C17.6854 8.15148 17.5792 8.10431 17.4672 8.10048C17.3552 8.09665 17.246 8.13645 17.1627 8.2115L15.3954 9.922V8.5085C15.3954 8.39375 15.3498 8.2837 15.2687 8.20256C15.1875 8.12142 15.0775 8.07583 14.9627 8.07583C14.848 8.07583 14.7379 8.12142 14.6568 8.20256C14.5757 8.2837 14.5301 8.39375 14.5301 8.5085V10.8524C14.5148 10.9194 14.5148 10.9889 14.5301 11.0559V12.375C14.5301 12.4898 14.5757 12.5998 14.6568 12.6809C14.7379 12.7621 14.848 12.8077 14.9627 12.8077C15.0775 12.8077 15.1875 12.7621 15.2687 12.6809C15.3498 12.5998 15.3954 12.4898 15.3954 12.375V11.1256L15.7868 10.747L17.0958 12.6106C17.1285 12.6571 17.17 12.6967 17.218 12.7272C17.266 12.7577 17.3196 12.7784 17.3756 12.7882C17.4316 12.798 17.489 12.7967 17.5445 12.7843C17.6 12.7719 17.6525 12.7487 17.699 12.716C17.7455 12.6833 17.7852 12.6418 17.8156 12.5938C17.8461 12.5458 17.8668 12.4923 17.8766 12.4362C17.8864 12.3802 17.8851 12.3229 17.8727 12.2674C17.8603 12.2119 17.8371 12.1594 17.8044 12.1128L16.4166 10.1383ZM13.7051 11.902H12.3667V8.52225C12.3616 8.41106 12.3139 8.30613 12.2334 8.22926C12.1529 8.15239 12.0458 8.10949 11.9345 8.10949C11.8232 8.10949 11.7162 8.15239 11.6357 8.22926C11.5552 8.30613 11.5075 8.41106 11.5023 8.52225V12.3347C11.5023 12.573 11.6948 12.7673 11.9341 12.7673H13.7051C13.8198 12.7673 13.9299 12.7217 14.011 12.6406C14.0922 12.5595 14.1377 12.4494 14.1377 12.3347C14.1377 12.2199 14.0922 12.1099 14.011 12.0287C13.9299 11.9476 13.8198 11.902 13.7051 11.902ZM8.33617 10.9019L8.97417 9.33625L9.559 10.901L8.33617 10.9019ZM10.6489 11.3483L10.6507 11.3337C10.6504 11.2247 10.6088 11.1199 10.5343 11.0403L9.5755 8.47367C9.53531 8.35135 9.45874 8.24422 9.35604 8.16658C9.25334 8.08894 9.12939 8.04449 9.00075 8.03917C8.87129 8.03911 8.74483 8.07821 8.638 8.15134C8.53117 8.22447 8.44896 8.32821 8.40217 8.44892L6.87867 12.1843C6.83527 12.2906 6.83586 12.4097 6.88029 12.5155C6.92473 12.6213 7.00938 12.7051 7.11562 12.7485C7.22187 12.7919 7.34099 12.7914 7.4468 12.7469C7.55261 12.7025 7.63644 12.6178 7.67983 12.5116L7.98417 11.7663H9.88167L10.1548 12.4997C10.1735 12.5545 10.2029 12.605 10.2414 12.6482C10.2799 12.6915 10.3267 12.7265 10.379 12.7513C10.4314 12.7761 10.4881 12.7902 10.546 12.7927C10.6038 12.7952 10.6616 12.786 10.7158 12.7658C10.77 12.7455 10.8197 12.7146 10.8617 12.6748C10.9038 12.635 10.9375 12.5872 10.9607 12.5342C10.984 12.4812 10.9963 12.424 10.9971 12.3661C10.9979 12.3082 10.987 12.2508 10.9652 12.1972L10.6489 11.3483ZM7.60283 8.52683C7.60307 8.47002 7.59208 8.41373 7.57048 8.36119C7.54888 8.30864 7.5171 8.26089 7.47697 8.22068C7.43684 8.18046 7.38916 8.14858 7.33666 8.12687C7.28416 8.10516 7.22789 8.09405 7.17108 8.09417H4.1965C4.08175 8.09417 3.9717 8.13975 3.89056 8.22089C3.80942 8.30203 3.76383 8.41208 3.76383 8.52683C3.76383 8.64158 3.80942 8.75163 3.89056 8.83278C3.9717 8.91392 4.08175 8.9595 4.1965 8.9595H5.25983V12.3842C5.25983 12.4989 5.30542 12.609 5.38656 12.6901C5.4677 12.7712 5.57775 12.8168 5.6925 12.8168C5.80725 12.8168 5.9173 12.7712 5.99844 12.6901C6.07958 12.609 6.12517 12.4989 6.12517 12.3842V8.9595H7.17017C7.22705 8.95974 7.28342 8.94872 7.33603 8.92706C7.38863 8.9054 7.43642 8.87354 7.47665 8.83332C7.51687 8.79309 7.54873 8.7453 7.57039 8.69269C7.59205 8.64009 7.60307 8.58372 7.60283 8.52683Z" fill="white"/>
</svg>
