<svg width="16" height="16" viewBox="0 0 16 16" fill="none" xmlns="http://www.w3.org/2000/svg">
<path d="M13.5342 2.85352C13.8072 2.83277 14.0781 2.91871 14.2871 3.09668C14.3906 3.18491 14.4764 3.29304 14.5381 3.41406C14.5997 3.53502 14.6361 3.66746 14.6465 3.80273C14.6568 3.93796 14.6411 4.07426 14.5986 4.20312C14.5562 4.33196 14.4881 4.4509 14.3994 4.55371L7.30273 12.79C7.20974 12.8979 7.09528 12.9851 6.9668 13.0469C6.83821 13.1087 6.69831 13.144 6.55566 13.1494C6.41307 13.1548 6.27059 13.1309 6.1377 13.0791C6.0047 13.0272 5.88329 12.9483 5.78223 12.8477L1.64258 8.72949L1.64062 8.72754C1.45191 8.53282 1.34712 8.27177 1.34961 8.00098C1.35214 7.73018 1.462 7.47149 1.6543 7.28027C1.84673 7.08903 2.10724 6.98074 2.37891 6.97852C2.6503 6.97639 2.91198 7.0798 3.10742 7.26758L3.10938 7.26953L6.45801 10.5996L12.8262 3.20996C13.0053 3.00241 13.2604 2.87439 13.5342 2.85352Z" fill="#161616" stroke="#161616" stroke-width="0.3"/>
</svg>
