<svg width="22" height="22" viewBox="0 0 22 22" fill="none" xmlns="http://www.w3.org/2000/svg">
<path d="M9.16668 13.75L13.9242 11L9.16668 8.24998V13.75ZM19.7633 6.57248C19.8825 7.00331 19.965 7.58081 20.02 8.31415C20.0842 9.04748 20.1117 9.67998 20.1117 10.23L20.1667 11C20.1667 13.0075 20.02 14.4833 19.7633 15.4275C19.5342 16.2525 19.0025 16.7841 18.1775 17.0133C17.7467 17.1325 16.9583 17.215 15.7483 17.27C14.5567 17.3341 13.4658 17.3616 12.4575 17.3616L11 17.4166C7.15918 17.4166 4.76668 17.27 3.82251 17.0133C2.99751 16.7841 2.46584 16.2525 2.23668 15.4275C2.11751 14.9966 2.03501 14.4191 1.98001 13.6858C1.91584 12.9525 1.88834 12.32 1.88834 11.77L1.83334 11C1.83334 8.99248 1.98001 7.51665 2.23668 6.57248C2.46584 5.74748 2.99751 5.21581 3.82251 4.98665C4.25334 4.86748 5.04168 4.78498 6.25168 4.72998C7.44334 4.66581 8.53418 4.63831 9.54251 4.63831L11 4.58331C14.8408 4.58331 17.2333 4.72998 18.1775 4.98665C19.0025 5.21581 19.5342 5.74748 19.7633 6.57248Z" fill="white"/>
</svg>
