<svg width="264" height="102" viewBox="0 0 264 102" fill="none" xmlns="http://www.w3.org/2000/svg">
<g filter="url(#filter0_i_253_146)">
<path d="M91.5005 0H37.5004C35.8445 0 34.5005 1.34404 34.5005 3.00015V30C34.5005 46.5661 47.9344 60 64.5006 60C81.0665 60 94.5004 46.5661 94.5004 30V3.00015C94.5004 1.34404 93.1566 0 91.5005 0Z" fill="#EBEBEB"/>
<path d="M159 0C144.09 0 132 9.08416 132 24.0001C132 9.08416 119.91 0 105 0C103.344 0 102 1.34404 102 3.00015V57.0001C102 58.656 103.344 60 105 60H159C160.656 60 162 58.656 162 57.0001V3.00015C162 1.34404 160.656 0 159 0Z" fill="#EBEBEB"/>
<path d="M229.499 57.0001V3.00015C229.499 1.34404 228.155 0 226.499 0H199.499C182.933 0 169.499 13.4341 169.499 30C169.499 46.5661 182.933 60 199.499 60H226.499C228.155 60 229.499 58.656 229.499 57.0001Z" fill="#EBEBEB"/>
</g>
<path d="M27.6221 88.1016H29.126V94.6094C29.126 96.6875 27.5674 98.1641 25.2021 98.1641C22.8096 98.1641 21.2646 96.6875 21.2646 94.6094V88.1016H22.7686V94.4863C22.7686 95.8262 23.6982 96.7969 25.2021 96.7969C26.6924 96.7969 27.6221 95.8262 27.6221 94.4863V88.1016ZM39.1338 88.1016V98H37.7529L32.7354 90.7676H32.6533V98H31.1494V88.1016H32.5439L37.5615 95.3477H37.6572V88.1016H39.1338ZM42.6611 88.1016V98H41.1572V88.1016H42.6611ZM45.5459 88.1016L48.2939 96.1543H48.4033L51.1514 88.1016H52.7783L49.21 98H47.4736L43.9189 88.1016H45.5459ZM54.0361 98V88.1016H60.2432V89.4004H55.54V92.3945H59.915V93.6797H55.54V96.7012H60.2979V98H54.0361ZM62.0889 98V88.1016H65.6162C67.9131 88.1016 69.0479 89.3867 69.0479 91.2051C69.0479 92.5381 68.4463 93.5498 67.2432 93.9941L69.4307 98H67.7217L65.7119 94.2676H65.6162H63.5928V98H62.0889ZM63.5928 92.9688H65.4658C66.9287 92.9688 67.5303 92.3262 67.5303 91.2051C67.5303 90.084 66.9287 89.3867 65.4658 89.3867H63.5928V92.9688ZM76.1025 90.7129C76.0068 89.7969 75.2002 89.2637 74.0654 89.2637C72.8486 89.2637 72.083 89.8789 72.083 90.7266C72.083 91.6699 73.1084 92.0254 73.8877 92.2168L74.8447 92.4766C76.1162 92.7773 77.6885 93.4746 77.7021 95.2656C77.6885 96.9336 76.3623 98.1641 74.0244 98.1641C71.8096 98.1641 70.415 97.0566 70.3193 95.252H71.8232C71.9189 96.332 72.8623 96.8516 74.0244 96.8516C75.2822 96.8516 76.1982 96.209 76.2119 95.2383C76.1982 94.377 75.3916 94.0215 74.3389 93.748L73.1631 93.4336C71.5771 92.9961 70.5791 92.1895 70.5791 90.8086C70.5791 89.0996 72.1104 87.9648 74.1064 87.9648C76.1162 87.9648 77.5244 89.1133 77.5654 90.7129H76.1025ZM80.8193 88.1016V98H79.3154V88.1016H80.8193ZM82.3369 89.4004V88.1016H90.0068V89.4004H86.9307V98H85.4268V89.4004H82.3369ZM90.7725 88.1016H92.4814L95.0518 92.5859H95.1611L97.7451 88.1016H99.4541L95.8584 94.1172V98H94.3545V94.1172L90.7725 88.1016ZM104.116 88.1016H105.948L109.079 95.7715H109.202L112.333 88.1016H114.165V98H112.729V90.8496H112.634L109.735 97.9863H108.546L105.634 90.8359H105.552V98H104.116V88.1016ZM117.036 98H115.437L118.991 88.1016H120.728L124.296 98H122.696L121.794 95.3887H117.938L117.036 98ZM118.376 94.1309H121.356L119.894 89.9062H119.825L118.376 94.1309ZM125.554 98V88.1016H127.058V92.8184H127.181L131.323 88.1016H133.21L129.218 92.5586L133.224 98H131.405L128.22 93.584L127.058 94.9238V98H125.554ZM134.454 98V88.1016H140.661V89.4004H135.958V92.3945H140.333V93.6797H135.958V96.7012H140.716V98H134.454ZM148.864 88.1016H150.368V94.6094C150.368 96.6875 148.81 98.1641 146.444 98.1641C144.052 98.1641 142.507 96.6875 142.507 94.6094V88.1016H144.011V94.4863C144.011 95.8262 144.94 96.7969 146.444 96.7969C147.935 96.7969 148.864 95.8262 148.864 94.4863V88.1016ZM157.778 90.7129C157.683 89.7969 156.876 89.2637 155.741 89.2637C154.524 89.2637 153.759 89.8789 153.759 90.7266C153.759 91.6699 154.784 92.0254 155.563 92.2168L156.521 92.4766C157.792 92.7773 159.364 93.4746 159.378 95.2656C159.364 96.9336 158.038 98.1641 155.7 98.1641C153.485 98.1641 152.091 97.0566 151.995 95.252H153.499C153.595 96.332 154.538 96.8516 155.7 96.8516C156.958 96.8516 157.874 96.209 157.888 95.2383C157.874 94.377 157.067 94.0215 156.015 93.748L154.839 93.4336C153.253 92.9961 152.255 92.1895 152.255 90.8086C152.255 89.0996 153.786 87.9648 155.782 87.9648C157.792 87.9648 159.2 89.1133 159.241 90.7129H157.778ZM171.108 91.3281C170.862 90.0566 169.81 89.3457 168.552 89.3457C166.843 89.3457 165.571 90.6582 165.571 93.0508C165.571 95.457 166.856 96.7559 168.552 96.7559C169.796 96.7559 170.849 96.0586 171.108 94.8008L172.626 94.8145C172.312 96.7695 170.712 98.1367 168.538 98.1367C165.954 98.1367 164.081 96.209 164.081 93.0508C164.081 89.8789 165.968 87.9648 168.538 87.9648C170.63 87.9648 172.284 89.1953 172.626 91.3281H171.108ZM174.253 98V88.1016H175.757V92.3945H180.679V88.1016H182.183V98H180.679V93.6797H175.757V98H174.253ZM185.054 98H183.454L187.009 88.1016H188.745L192.313 98H190.714L189.812 95.3887H185.956L185.054 98ZM186.394 94.1309H189.374L187.911 89.9062H187.843L186.394 94.1309ZM193.571 98V88.1016H195.075V96.7012H199.546V98H193.571ZM201.091 98V88.1016H202.595V96.7012H207.065V98H201.091ZM208.61 98V88.1016H214.817V89.4004H210.114V92.3945H214.489V93.6797H210.114V96.7012H214.872V98H208.61ZM224.647 88.1016V98H223.267L218.249 90.7676H218.167V98H216.663V88.1016H218.058L223.075 95.3477H223.171V88.1016H224.647ZM233.356 91.2324C232.987 90.0566 232.099 89.3457 230.786 89.3457C229.118 89.3457 227.833 90.6582 227.833 93.0508C227.833 95.4434 229.104 96.7559 230.854 96.7559C232.434 96.7559 233.479 95.7578 233.507 94.1719H231.073V92.9277H234.97V94.0488C234.97 96.5508 233.247 98.1367 230.841 98.1367C228.161 98.1367 226.343 96.1816 226.343 93.0508C226.343 89.8926 228.216 87.9648 230.772 87.9648C232.919 87.9648 234.56 89.3047 234.901 91.2324H233.356ZM236.706 98V88.1016H242.913V89.4004H238.21V92.3945H242.585V93.6797H238.21V96.7012H242.968V98H236.706Z" fill="#D2D2D2"/>
<defs>
<filter id="filter0_i_253_146" x="34.5005" y="-4" width="194.999" height="64" filterUnits="userSpaceOnUse" color-interpolation-filters="sRGB">
<feFlood flood-opacity="0" result="BackgroundImageFix"/>
<feBlend mode="normal" in="SourceGraphic" in2="BackgroundImageFix" result="shape"/>
<feColorMatrix in="SourceAlpha" type="matrix" values="0 0 0 0 0 0 0 0 0 0 0 0 0 0 0 0 0 0 127 0" result="hardAlpha"/>
<feOffset dy="-4"/>
<feGaussianBlur stdDeviation="4"/>
<feComposite in2="hardAlpha" operator="arithmetic" k2="-1" k3="1"/>
<feColorMatrix type="matrix" values="0 0 0 0 0 0 0 0 0 0 0 0 0 0 0 0 0 0 0.25 0"/>
<feBlend mode="normal" in2="shape" result="effect1_innerShadow_253_146"/>
</filter>
</defs>
</svg>
