<svg width="70" height="22" viewBox="0 0 70 22" fill="none" xmlns="http://www.w3.org/2000/svg">
<g filter="url(#filter0_i_528_633)">
<path d="M20.4617 0H1.07691C0.482481 0 0 0.492813 0 1.10005V11C0 17.0742 4.82249 22 10.7694 22C16.7162 22 21.5386 17.0742 21.5386 11V1.10005C21.5386 0.492813 21.0562 0 20.4617 0Z" fill="#EBEBEB"/>
<path d="M44.6932 0C39.3408 0 35.0007 3.33086 35.0007 8.80005C35.0007 3.33086 30.6607 0 25.3084 0C24.7138 0 24.2314 0.492813 24.2314 1.10005V20.9C24.2314 21.5072 24.7138 22 25.3084 22H44.6932C45.2876 22 45.7701 21.5072 45.7701 20.9V1.10005C45.7701 0.492813 45.2876 0 44.6932 0Z" fill="#EBEBEB"/>
<path d="M69.9998 20.9V1.10005C69.9998 0.492813 69.5175 0 68.9227 0H59.2303C53.2835 0 48.4609 4.92585 48.4609 11C48.4609 17.0742 53.2835 22 59.2303 22H68.9227C69.5175 22 69.9998 21.5072 69.9998 20.9Z" fill="#EBEBEB"/>
</g>
<defs>
<filter id="filter0_i_528_633" x="0" y="-4" width="70" height="26" filterUnits="userSpaceOnUse" color-interpolation-filters="sRGB">
<feFlood flood-opacity="0" result="BackgroundImageFix"/>
<feBlend mode="normal" in="SourceGraphic" in2="BackgroundImageFix" result="shape"/>
<feColorMatrix in="SourceAlpha" type="matrix" values="0 0 0 0 0 0 0 0 0 0 0 0 0 0 0 0 0 0 127 0" result="hardAlpha"/>
<feOffset dy="-4"/>
<feGaussianBlur stdDeviation="2"/>
<feComposite in2="hardAlpha" operator="arithmetic" k2="-1" k3="1"/>
<feColorMatrix type="matrix" values="0 0 0 0 0 0 0 0 0 0 0 0 0 0 0 0 0 0 0.25 0"/>
<feBlend mode="normal" in2="shape" result="effect1_innerShadow_528_633"/>
</filter>
</defs>
</svg>
