<svg width="76" height="24" viewBox="0 0 76 24" fill="none" xmlns="http://www.w3.org/2000/svg">
<path d="M22.2157 0H1.16923C0.523839 0 0 0.537614 0 1.20006V12C0 18.6264 5.23588 24 11.6925 24C18.1491 24 23.385 18.6264 23.385 12V1.20006C23.385 0.537614 22.8612 0 22.2157 0Z" fill="#A7A7A7"/>
<path d="M48.5243 0C42.7132 0 38.001 3.63366 38.001 9.60005C38.001 3.63366 33.289 0 27.4778 0C26.8324 0 26.3086 0.537614 26.3086 1.20006V22.8C26.3086 23.4624 26.8324 24 27.4778 24H48.5243C49.1697 24 49.6936 23.4624 49.6936 22.8V1.20006C49.6936 0.537614 49.1697 0 48.5243 0Z" fill="#A7A7A7"/>
<path d="M76.0005 22.8V1.20006C76.0005 0.537614 75.4768 0 74.831 0H64.3078C57.8512 0 52.6152 5.37366 52.6152 12C52.6152 18.6264 57.8512 24 64.3078 24H74.831C75.4768 24 76.0005 23.4624 76.0005 22.8Z" fill="#A7A7A7"/>
</svg>
