<svg width="833" height="90" viewBox="0 0 833 90" fill="none" xmlns="http://www.w3.org/2000/svg">
<g filter="url(#filter0_d_3146_7647)">
<path d="M803.648 30.7464C803.978 28.3088 802.164 26.7514 799 26.7514C796.047 26.7514 793.367 28.0379 792.906 29.9339C792.438 31.3558 793.241 32.5069 796.376 33.1163L803.239 34.4706C810.435 35.8926 813.201 39.075 811.774 44.4243C809.601 51.9404 801.065 56.8157 790.73 56.8157C779.831 56.8157 774.74 52.1435 776.012 44.8306H787.825C787.508 47.4714 789.501 48.8933 793.016 48.8933C796.251 48.8933 798.771 47.6745 799.41 45.6431C799.794 44.0181 798.602 43.0024 795.487 42.3252L789.27 41.1741C782.125 39.8199 779.351 36.1634 780.994 30.5433C782.969 23.2303 790.651 18.8967 800.987 18.8967C811.252 18.8967 816.241 23.4335 814.687 30.7464H803.648Z" fill="#95EF4B"/>
<path d="M752.73 56.8157C740.776 56.8157 735.472 49.6382 738.749 37.9239C741.932 26.5482 751.455 18.8967 762.916 18.8967C773.604 18.8967 779.501 25.4648 776.091 37.6531L775.276 40.5647H749.682L749.625 40.7679C748.299 45.5077 750.47 48.5548 755.252 48.5548C758.486 48.5548 761.255 47.2005 762.846 45.0337H773.885C770.471 52.2113 762.644 56.8157 752.73 56.8157ZM751.558 33.8612H766.112C767.141 29.9339 764.964 27.1576 760.886 27.1576C756.668 27.1576 752.804 30.0354 751.558 33.8612Z" fill="#95EF4B"/>
<path d="M718.154 56.1386L728.44 19.3707H740.323L730.036 56.1386H718.154ZM735.648 14.9694C732.273 14.9694 730.213 12.5318 731.065 9.48471C731.918 6.43765 735.342 4 738.717 4C742.092 4 744.223 6.43765 743.37 9.48471C742.518 12.5318 739.023 14.9694 735.648 14.9694Z" fill="#95EF4B"/>
<path d="M724.823 19.3707L722.474 27.7671H715.513L710.796 44.6275C710.152 46.9297 711.157 47.6068 713.178 47.6745C714.143 47.7423 716.079 47.6068 717.434 47.5391L714.99 56.274C713.828 56.4094 711.783 56.6803 708.971 56.6803C700.603 56.6803 696.469 53.3624 698.623 45.914L703.7 27.7671H698.567L700.916 19.3707H706.049L708.512 10.5681H720.324L717.862 19.3707H724.823Z" fill="#95EF4B"/>
<path d="M676.255 56.1386L686.542 19.3707H698.425L688.138 56.1386H676.255ZM693.75 14.9694C690.375 14.9694 688.314 12.5318 689.167 9.48471C690.019 6.43765 693.444 4 696.819 4C700.194 4 702.324 6.43765 701.472 9.48471C700.619 12.5318 697.125 14.9694 693.75 14.9694Z" fill="#95EF4B"/>
<path d="M668.07 30.7464C668.4 28.3088 666.586 26.7514 663.422 26.7514C660.469 26.7514 657.788 28.0379 657.328 29.9339C656.86 31.3558 657.663 32.5069 660.797 33.1163L667.661 34.4706C674.857 35.8926 677.623 39.075 676.196 44.4243C674.023 51.9404 665.487 56.8157 655.151 56.8157C644.253 56.8157 639.162 52.1435 640.434 44.8306H652.247C651.93 47.4714 653.923 48.8933 657.438 48.8933C660.673 48.8933 663.193 47.6745 663.832 45.6431C664.216 44.0181 663.024 43.0024 659.909 42.3252L653.691 41.1741C646.547 39.8199 643.773 36.1634 645.416 30.5433C647.391 23.2303 655.072 18.8967 665.408 18.8967C675.674 18.8967 680.663 23.4335 679.109 30.7464H668.07Z" fill="#95EF4B"/>
<path d="M612.42 56.1387L622.706 19.3708H634.237L632.381 26.0066H632.732C635.484 21.199 639.522 18.8291 643.74 18.8291C644.865 18.8291 646.074 19.0322 647.002 19.2354L644.217 29.1891C643.187 28.8505 641.134 28.6474 639.658 28.6474C635.228 28.6474 631.16 31.6268 629.929 36.0281L624.302 56.1387H612.42Z" fill="#95EF4B"/>
<path d="M590.612 56.8157C578.659 56.8157 573.355 49.6382 576.632 37.9239C579.815 26.5482 589.338 18.8967 600.799 18.8967C611.487 18.8967 617.383 25.4648 613.973 37.6531L613.159 40.5647H587.565L587.508 40.7679C586.182 45.5077 588.353 48.5548 593.134 48.5548C596.369 48.5548 599.138 47.2005 600.729 45.0337H611.768C608.354 52.2113 600.526 56.8157 590.612 56.8157ZM589.441 33.8612H603.995C605.024 29.9339 602.847 27.1576 598.769 27.1576C594.55 27.1576 590.687 30.0354 589.441 33.8612Z" fill="#95EF4B"/>
<path d="M582.495 19.3708L559.06 56.1387H545.49L542.698 19.3708H555.144L555.244 44.8984H555.666L569.98 19.3708H582.495Z" fill="#95EF4B"/>
<path d="M518.458 56.1386L528.745 19.3707H540.628L530.341 56.1386H518.458ZM535.953 14.9694C532.578 14.9694 530.518 12.5318 531.37 9.48471C532.223 6.43765 535.647 4 539.022 4C542.397 4 544.527 6.43765 543.675 9.48471C542.822 12.5318 539.328 14.9694 535.953 14.9694Z" fill="#95EF4B"/>
<path d="M494.787 35.08L488.896 56.1386H477.013L487.299 19.3707H498.549L496.674 26.0742H497.096C500.104 21.6052 505.08 18.8967 510.705 18.8967C518.721 18.8967 522.46 24.3814 520.059 32.7101L513.505 56.1386H501.692L507.641 34.8769C508.796 30.7464 507.177 28.241 503.239 28.241C499.302 28.241 495.981 30.8141 494.787 35.08Z" fill="#95EF4B"/>
<path d="M473.541 7.11475H485.565L476.718 38.7365C473.649 49.7059 463.011 56.8157 450.215 56.8157C437.347 56.8157 430.758 49.7059 433.827 38.7365L442.674 7.11475H454.627L446.046 37.7885C444.587 43.0023 447.412 46.7265 453.037 46.7265C458.662 46.7265 463.501 43.0023 464.96 37.7885L473.541 7.11475Z" fill="#95EF4B"/>
<path d="M373.209 56.1387L375.539 47.8101L398.496 32.1008C403.846 28.3089 407.008 25.8035 408.12 22.0793C409.187 18.0166 406.813 15.4435 402.524 15.4435C398.164 15.4435 394.543 18.0843 393.292 22.5533H381.902C384.668 12.6673 393.934 6.43774 405.113 6.43774C416.574 6.43774 422.431 12.3964 419.968 21.1991C418.396 26.8192 414.206 31.4914 400.571 40.768L392.582 46.4558L392.487 46.7944H413.44L410.826 56.1387H373.209Z" fill="#95EF4B"/>
<path d="M331.201 56.1387L333.531 47.8101L356.488 32.1008C361.838 28.3089 365 25.8035 366.112 22.0793C367.179 18.0166 364.805 15.4435 360.516 15.4435C356.156 15.4435 352.535 18.0843 351.285 22.5533H339.894C342.66 12.6673 351.926 6.43774 363.106 6.43774C374.567 6.43774 380.423 12.3964 377.96 21.1991C376.388 26.8192 372.198 31.4914 358.564 40.768L350.574 46.4558L350.479 46.7944H371.432L368.818 56.1387H331.201Z" fill="#95EF4B"/>
<path d="M281.852 69.9521C279.602 69.9521 277.512 69.8843 276.003 69.7489L278.427 61.0817C279.936 61.2171 281.624 61.2171 283.03 61.2171C284.999 61.2171 286.532 61.014 288.269 58.5764L289.013 57.4253L286.089 19.3708H298.464L298.318 45.7787H298.74L313.37 19.3708H325.886L300.111 59.7275C296.316 65.7539 290.782 69.9521 281.852 69.9521Z" fill="#95EF4B"/>
<path d="M238.153 56.1386L251.868 7.11475H263.681L258.49 25.668H258.771C261.176 22.35 265.377 18.8967 271.494 18.8967C279.51 18.8967 285.085 24.8554 281.466 37.7885C277.981 50.2476 269.361 56.6803 260.853 56.6803C255.017 56.6803 252.532 53.4978 251.914 50.1799H251.562L249.895 56.1386H238.153ZM254.907 37.7208C253.202 43.8149 254.775 47.7422 259.346 47.7422C263.916 47.7422 267.616 43.8149 269.321 37.7208C270.988 31.7621 269.556 27.8348 264.915 27.8348C260.275 27.8348 256.612 31.6267 254.907 37.7208Z" fill="#95EF4B"/>
<path d="M196.314 56.6803C187.806 56.6803 182.785 50.2476 186.271 37.7885C189.889 24.8554 198.799 18.8967 206.814 18.8967C212.932 18.8967 215.2 22.35 215.748 25.668H216.029L221.22 7.11475H233.032L219.317 56.1386H207.575L209.242 50.1799H208.89C206.415 53.4978 202.15 56.6803 196.314 56.6803ZM202.822 47.7422C207.393 47.7422 211.163 43.8149 212.868 37.7208C214.573 31.6267 213.032 27.8348 208.392 27.8348C203.751 27.8348 200.121 31.7621 198.454 37.7208C196.749 43.8149 198.252 47.7422 202.822 47.7422Z" fill="#95EF4B"/>
<path d="M160.667 56.8157C148.714 56.8157 143.409 49.6382 146.687 37.9239C149.869 26.5482 159.393 18.8967 170.854 18.8967C181.541 18.8967 187.438 25.4648 184.028 37.6531L183.214 40.5647H157.62L157.563 40.7679C156.237 45.5077 158.408 48.5548 163.189 48.5548C166.423 48.5548 169.193 47.2005 170.784 45.0337H181.823C178.408 52.2113 170.581 56.8157 160.667 56.8157ZM159.495 33.8612H174.05C175.078 29.9339 172.902 27.1576 168.824 27.1576C164.605 27.1576 160.741 30.0354 159.495 33.8612Z" fill="#95EF4B"/>
<path d="M119.397 35.08L113.506 56.1386H101.623L111.91 19.3707H123.16L121.284 26.0742H121.706C124.714 21.6052 129.691 18.8967 135.316 18.8967C143.331 18.8967 147.07 24.3814 144.67 32.7101L138.115 56.1386H126.303L132.251 34.8769C133.407 30.7464 131.787 28.241 127.85 28.241C123.912 28.241 120.591 30.8141 119.397 35.08Z" fill="#95EF4B"/>
<path d="M84.6458 56.1386L94.9324 19.3707H106.815L96.5286 56.1386H84.6458ZM102.14 14.9694C98.7653 14.9694 96.7051 12.5318 97.5575 9.48471C98.41 6.43765 101.834 4 105.209 4C108.584 4 110.715 6.43765 109.862 9.48471C109.01 12.5318 105.515 14.9694 102.14 14.9694Z" fill="#95EF4B"/>
<path d="M61.6446 56.8157C49.6914 56.8157 44.5899 49.1642 47.7535 37.8562C50.9172 26.5482 60.3 18.8967 72.2531 18.8967C84.2063 18.8967 89.3078 26.5482 86.1442 37.8562C82.9805 49.1642 73.5977 56.8157 61.6446 56.8157ZM64.1207 48.2162C68.6207 48.2162 72.3455 43.9503 74.0694 37.7885C75.7932 31.6267 74.4555 27.3608 69.9555 27.3608C65.3148 27.3608 61.5901 31.6267 59.8662 37.7885C58.1423 43.9503 59.4801 48.2162 64.1207 48.2162Z" fill="#95EF4B"/>
<path d="M40.8532 7.11475H52.6657L43.1748 41.0387C40.5038 50.5861 31.3781 56.8157 20.6203 56.8157C11.1984 56.8157 4.9118 52.1435 7.89947 41.7158H19.8526C18.9134 45.5754 20.4355 47.6745 23.8808 47.6745C27.4668 47.6745 30.131 45.44 31.3623 41.0387L40.8532 7.11475Z" fill="#95EF4B"/>
</g>
<defs>
<filter id="filter0_d_3146_7647" x="1.14962" y="0" width="831.816" height="89.9521" filterUnits="userSpaceOnUse" color-interpolation-filters="sRGB">
<feFlood flood-opacity="0" result="BackgroundImageFix"/>
<feColorMatrix in="SourceAlpha" type="matrix" values="0 0 0 0 0 0 0 0 0 0 0 0 0 0 0 0 0 0 127 0" result="hardAlpha"/>
<feOffset dx="6" dy="8"/>
<feGaussianBlur stdDeviation="6"/>
<feComposite in2="hardAlpha" operator="out"/>
<feColorMatrix type="matrix" values="0 0 0 0 0.584314 0 0 0 0 0.937255 0 0 0 0 0.294118 0 0 0 0.4 0"/>
<feBlend mode="normal" in2="BackgroundImageFix" result="effect1_dropShadow_3146_7647"/>
<feBlend mode="normal" in="SourceGraphic" in2="effect1_dropShadow_3146_7647" result="shape"/>
</filter>
</defs>
</svg>
